<?xml version="1.0" encoding="utf-8"?>
<!-- Generator: Adobe Illustrator 23.0.0, SVG Export Plug-In . SVG Version: 6.00 Build 0)  -->
<svg version="1.1" id="Capa_1" xmlns="http://www.w3.org/2000/svg" xmlns:xlink="http://www.w3.org/1999/xlink" x="0px" y="0px"
	 viewBox="0 0 800 144" style="enable-background:new 0 0 800 144;" xml:space="preserve">
<style type="text/css">
	.st0{fill:#1A1D3C;}
	.st1{enable-background:new    ;}
	.st2{fill:#FFFFFF;}
	.st3{fill:url(#SVGID_1_);}
	.st4{fill:url(#SVGID_2_);}
	.st5{fill:url(#SVGID_3_);}
	.st6{fill:url(#SVGID_4_);}
	.st7{fill:url(#SVGID_5_);}
	.st8{fill:url(#SVGID_6_);}
	.st9{fill:url(#SVGID_7_);}
	.st10{fill:url(#SVGID_8_);}
</style>
<rect x="-12.54" y="-6.03" class="st0" width="825.08" height="213.06"/>
<g>
	<g class="st1">
		<path class="st2" d="M348.94,88.43h-6.06v10.61h-2.31V72.79h8.37c5.95,0,8.54,2.31,8.54,7.81
			C357.48,85.88,354.96,88.43,348.94,88.43z M348.94,74.85h-6.06v11.59h6.06c4.1,0,6.2-1.4,6.2-5.85
			C355.13,76.39,353.14,74.85,348.94,74.85z"/>
		<path class="st2" d="M363.43,99.04V71.18l2.1-0.14v28H363.43z"/>
		<path class="st2" d="M384.78,96.13l-0.1-0.04c-1.12,1.96-3.57,3.26-6.44,3.26c-3.75,0-6.34-1.86-6.34-6.48
			c0-3.92,2.42-6.16,7.46-6.16c1.86,0,3.75,0.38,5.15,0.91v-2.56c0-3.92-1.65-5.18-5.29-5.18c-2.14,0-4.06,0.39-5.85,1.3l-0.25-1.86
			c1.96-0.91,4.06-1.37,6.44-1.37c5.04,0,7.07,2.07,7.07,7.42v13.65h-1.61L384.78,96.13z M384.5,89.31
			c-0.53-0.38-2.35-0.98-4.83-0.98c-3.99,0-5.74,1.64-5.74,4.52c0,3.5,2.1,4.69,4.87,4.69c3.01,0,5.71-2.1,5.71-4.1V89.31z"/>
		<path class="st2" d="M406.06,99.04V85.11c0-3.54-1.96-5.04-5.46-5.04c-2.03,0-4.48,0.98-5.64,2.8v16.17h-2.1V78.42l1.51-0.14
			l0.38,2.49h0.11c1.4-1.72,3.78-2.73,6.27-2.73c4.38,0,7.04,2.28,7.04,7.04v13.97H406.06z"/>
	</g>
	<g class="st1">
		<path class="st2" d="M427.65,99.04V72.79h16.8l0.07,4.44h-12.03v6.15h10.22v4.07h-10.22v7.28h12.59l-0.1,4.31H427.65z"/>
		<path class="st2" d="M448.11,83.85c0-1.85,0.64-3.35,1.93-4.5c1.29-1.15,3.21-1.73,5.78-1.73c2.09,0,4.03,0.39,5.82,1.18
			l-0.39,3.71c-0.88-0.38-1.82-0.65-2.81-0.82c-0.99-0.17-1.88-0.26-2.69-0.26c-1.05,0-1.87,0.2-2.47,0.59
			c-0.6,0.39-0.9,0.95-0.9,1.66c0,0.61,0.25,1.09,0.75,1.44s1.13,0.66,1.87,0.92c0.75,0.26,1.56,0.52,2.43,0.79
			c0.88,0.27,1.69,0.63,2.43,1.09c0.74,0.46,1.36,1.06,1.86,1.81s0.75,1.73,0.75,2.94c0,1.02-0.14,1.95-0.43,2.79
			c-0.29,0.84-0.75,1.55-1.38,2.14s-1.43,1.05-2.41,1.38s-2.15,0.49-3.52,0.49c-1.26,0-2.45-0.13-3.55-0.38
			c-1.11-0.25-2.1-0.65-2.99-1.19l0.53-3.75c0.82,0.54,1.79,0.95,2.91,1.23s2.15,0.42,3.11,0.42c1.29,0,2.22-0.26,2.79-0.77
			c0.57-0.51,0.85-1.16,0.85-1.92c0-0.67-0.25-1.2-0.75-1.58c-0.5-0.38-1.14-0.71-1.91-0.99c-0.77-0.28-1.59-0.55-2.47-0.82
			c-0.88-0.27-1.7-0.63-2.47-1.09c-0.77-0.46-1.4-1.06-1.91-1.82C448.36,86.05,448.11,85.07,448.11,83.85z"/>
		<path class="st2" d="M465.21,88.12c0-3.36,0.74-5.95,2.22-7.77s3.75-2.73,6.8-2.73c1.31,0,2.48,0.19,3.52,0.57
			s1.93,0.98,2.67,1.79c0.75,0.81,1.32,1.83,1.72,3.05c0.4,1.23,0.6,2.67,0.6,4.35c0,0.33-0.01,0.69-0.02,1.07
			c-0.01,0.38-0.04,0.74-0.09,1.07h-12.82c0.11,2.16,0.66,3.68,1.63,4.54c0.97,0.87,2.46,1.3,4.47,1.3c2,0,3.89-0.38,5.66-1.13
			l0.53,3.72c-0.89,0.46-1.9,0.82-3.03,1.08s-2.36,0.39-3.69,0.39c-3.54,0-6.13-0.94-7.75-2.82
			C466.03,94.73,465.21,91.9,465.21,88.12z M469.73,86.51h8.92c-0.05-1.86-0.45-3.17-1.22-3.93c-0.77-0.76-1.82-1.15-3.15-1.15
			c-1.54,0-2.65,0.4-3.34,1.2S469.84,84.72,469.73,86.51z"/>
		<path class="st2" d="M486.64,99.04V78.07l3.18-0.24l0.7,2.04c0.8-0.75,1.71-1.32,2.74-1.71c1.03-0.38,2.11-0.57,3.25-0.57
			c2.25,0,4.02,0.66,5.31,1.97c1.29,1.32,1.94,3.25,1.94,5.82v13.65h-4.44V85.43c0-1.33-0.35-2.29-1.04-2.88s-1.69-0.89-3-0.89
			c-0.8,0-1.59,0.17-2.37,0.51c-0.78,0.34-1.39,0.81-1.82,1.42v15.45H486.64z"/>
		<path class="st2" d="M507.44,88.54c0-3.54,0.75-6.24,2.24-8.1c1.49-1.86,3.87-2.79,7.14-2.79c0.91,0,1.82,0.09,2.73,0.26
			c0.91,0.17,1.7,0.4,2.38,0.69l-0.29,3.93c-0.58-0.26-1.2-0.46-1.86-0.6c-0.66-0.14-1.33-0.21-2.02-0.21
			c-1.05,0-1.94,0.12-2.67,0.37c-0.73,0.25-1.32,0.65-1.77,1.21s-0.77,1.26-0.97,2.12c-0.2,0.86-0.3,1.9-0.3,3.13
			c0,2.58,0.48,4.42,1.45,5.51c0.97,1.09,2.35,1.64,4.15,1.64c1.56,0,2.94-0.33,4.14-0.98l0.31,3.5c-0.6,0.39-1.37,0.7-2.31,0.94
			s-1.96,0.36-3.08,0.36c-3.05,0-5.36-0.89-6.93-2.66C508.23,95.07,507.44,92.3,507.44,88.54z"/>
		<path class="st2" d="M526.22,73.07c0-1.44,0.89-2.16,2.67-2.15c1.78,0,2.66,0.72,2.65,2.15c0,1.4-0.9,2.09-2.69,2.09
			c-0.87,0-1.53-0.15-1.97-0.46C526.44,74.4,526.22,73.86,526.22,73.07z M526.6,99.04V78.1l4.44-0.24v21.17H526.6z"/>
		<path class="st2" d="M536.02,92.52c0-1.98,0.65-3.56,1.94-4.74s3.19-1.77,5.69-1.77c0.82,0,1.6,0.07,2.34,0.2
			c0.74,0.13,1.42,0.29,2.03,0.47V85.1c0-1.34-0.34-2.29-1.01-2.86c-0.68-0.56-1.8-0.84-3.38-0.84c-1.15,0-2.17,0.09-3.06,0.28
			c-0.89,0.19-1.83,0.49-2.82,0.9l-0.4-3.66c2.08-0.9,4.44-1.35,7.07-1.34c1.48,0,2.72,0.16,3.74,0.49
			c1.02,0.33,1.85,0.82,2.49,1.49c0.64,0.67,1.1,1.51,1.39,2.54s0.43,2.25,0.43,3.67v13.26h-3.4l-0.41-2.25l-0.11-0.03
			c-0.65,0.82-1.49,1.47-2.51,1.93c-1.03,0.46-2.17,0.7-3.44,0.7c-1.98,0-3.57-0.56-4.77-1.68S536.02,94.86,536.02,92.52z
			 M540.29,92.45c0,1.24,0.33,2.1,0.98,2.59c0.65,0.49,1.5,0.73,2.55,0.73c0.56,0,1.09-0.08,1.59-0.25c0.5-0.17,0.94-0.38,1.33-0.65
			c0.39-0.27,0.7-0.58,0.93-0.95c0.23-0.36,0.35-0.73,0.35-1.09v-3.08c-0.26-0.11-0.7-0.24-1.31-0.38
			c-0.61-0.14-1.36-0.21-2.25-0.21c-1.44,0-2.5,0.28-3.16,0.84S540.29,91.38,540.29,92.45z"/>
		<path class="st2" d="M557.64,99.04V71.63l4.44-0.24v27.65H557.64z"/>
	</g>
	<g>
		
			<linearGradient id="SVGID_1_" gradientUnits="userSpaceOnUse" x1="240.78" y1="74.195" x2="331.51" y2="74.195" gradientTransform="matrix(1 0 0 -1 0 146)">
			<stop  offset="0" style="stop-color:#1EADCB"/>
			<stop  offset="0.3892" style="stop-color:#20ABCA"/>
			<stop  offset="0.5914" style="stop-color:#26A3C5"/>
			<stop  offset="0.7504" style="stop-color:#3096BC"/>
			<stop  offset="0.8863" style="stop-color:#3E83B0"/>
			<stop  offset="0.939" style="stop-color:#4579AA"/>
		</linearGradient>
		<polygon class="st3" points="316.99,107.88 314.5,107.88 314.5,80.09 325.67,80.09 311.36,65.76 311.36,49.05 303.47,49.05 
			303.47,57.43 285.55,39.23 246.46,79.96 257.08,79.96 257.08,107.88 254.59,107.88 254.59,82.35 240.78,82.35 285.53,35.73 
			300.98,51.43 300.98,46.66 313.85,46.66 313.85,64.79 331.51,82.49 316.99,82.49 		"/>
		
			<linearGradient id="SVGID_2_" gradientUnits="userSpaceOnUse" x1="277.31" y1="85.26" x2="293.65" y2="85.26" gradientTransform="matrix(1 0 0 -1 0 146)">
			<stop  offset="0" style="stop-color:#1EADCB"/>
			<stop  offset="0.3892" style="stop-color:#20ABCA"/>
			<stop  offset="0.5914" style="stop-color:#26A3C5"/>
			<stop  offset="0.7504" style="stop-color:#3096BC"/>
			<stop  offset="0.8863" style="stop-color:#3E83B0"/>
			<stop  offset="0.939" style="stop-color:#4579AA"/>
		</linearGradient>
		<path class="st4" d="M285.48,68.6c-4.5,0-8.17-3.53-8.17-7.86s3.66-7.86,8.17-7.86c4.5,0,8.17,3.53,8.17,7.86
			C293.65,65.08,289.98,68.6,285.48,68.6z M285.48,55.6c-2.95,0-5.35,2.31-5.35,5.15s2.4,5.15,5.35,5.15s5.35-2.31,5.35-5.15
			C290.83,57.9,288.43,55.6,285.48,55.6z"/>
		
			<linearGradient id="SVGID_3_" gradientUnits="userSpaceOnUse" x1="270.95" y1="64.07" x2="276.3158" y2="64.07" gradientTransform="matrix(1 0 0 -1 0 146)">
			<stop  offset="0" style="stop-color:#1EADCB"/>
			<stop  offset="0.3892" style="stop-color:#20ABCA"/>
			<stop  offset="0.5914" style="stop-color:#26A3C5"/>
			<stop  offset="0.7504" style="stop-color:#3096BC"/>
			<stop  offset="0.8863" style="stop-color:#3E83B0"/>
			<stop  offset="0.939" style="stop-color:#4579AA"/>
		</linearGradient>
		<ellipse class="st5" cx="273.63" cy="81.93" rx="2.68" ry="2.58"/>
		
			<linearGradient id="SVGID_4_" gradientUnits="userSpaceOnUse" x1="295.02" y1="64.07" x2="300.3859" y2="64.07" gradientTransform="matrix(1 0 0 -1 0 146)">
			<stop  offset="0" style="stop-color:#1EADCB"/>
			<stop  offset="0.3892" style="stop-color:#20ABCA"/>
			<stop  offset="0.5914" style="stop-color:#26A3C5"/>
			<stop  offset="0.7504" style="stop-color:#3096BC"/>
			<stop  offset="0.8863" style="stop-color:#3E83B0"/>
			<stop  offset="0.939" style="stop-color:#4579AA"/>
		</linearGradient>
		<ellipse class="st6" cx="297.7" cy="81.93" rx="2.68" ry="2.58"/>
		
			<linearGradient id="SVGID_5_" gradientUnits="userSpaceOnUse" x1="283.6447" y1="54.36" x2="286.9003" y2="54.36" gradientTransform="matrix(1 0 0 -1 0 146)">
			<stop  offset="0" style="stop-color:#1EADCB"/>
			<stop  offset="0.3892" style="stop-color:#20ABCA"/>
			<stop  offset="0.5914" style="stop-color:#26A3C5"/>
			<stop  offset="0.7504" style="stop-color:#3096BC"/>
			<stop  offset="0.8863" style="stop-color:#3E83B0"/>
			<stop  offset="0.939" style="stop-color:#4579AA"/>
		</linearGradient>
		<ellipse class="st7" cx="285.27" cy="91.64" rx="1.63" ry="1.57"/>
		
			<linearGradient id="SVGID_6_" gradientUnits="userSpaceOnUse" x1="266.82" y1="49.32" x2="280.3" y2="49.32" gradientTransform="matrix(1 0 0 -1 0 146)">
			<stop  offset="0" style="stop-color:#1EADCB"/>
			<stop  offset="0.3892" style="stop-color:#20ABCA"/>
			<stop  offset="0.5914" style="stop-color:#26A3C5"/>
			<stop  offset="0.7504" style="stop-color:#3096BC"/>
			<stop  offset="0.8863" style="stop-color:#3E83B0"/>
			<stop  offset="0.939" style="stop-color:#4579AA"/>
		</linearGradient>
		<path class="st8" d="M266.82,95.01c0-1.12,0-6.44,0-6.44s0.48-3.48,4.13-3.48s2.43,0,5.64,0c3.21,0,3.71,2.91,3.71,2.91
			s0,5.92,0,7.06s-1.88,1.11-1.91,0c-0.03-0.82,0-4.38,0-4.91c0-0.41-0.84-0.45-0.84,0s0,18.12,0,18.12h-2.98c0,0,0.07-7.96,0-9.27
			c-0.07-1.3-1.58-1.14-1.58,0s0,9.27,0,9.27h-3.12c0,0,0.01-17.71,0-18.2s-0.79-0.38-0.81,0c-0.02,0.45,0,4.9,0,4.9
			C268.91,96.48,266.82,96.13,266.82,95.01z"/>
		
			<linearGradient id="SVGID_7_" gradientUnits="userSpaceOnUse" x1="280.94" y1="45.09" x2="289.38" y2="45.09" gradientTransform="matrix(1 0 0 -1 0 146)">
			<stop  offset="0" style="stop-color:#1EADCB"/>
			<stop  offset="0.3892" style="stop-color:#20ABCA"/>
			<stop  offset="0.5914" style="stop-color:#26A3C5"/>
			<stop  offset="0.7504" style="stop-color:#3096BC"/>
			<stop  offset="0.8863" style="stop-color:#3E83B0"/>
			<stop  offset="0.939" style="stop-color:#4579AA"/>
		</linearGradient>
		<path class="st9" d="M280.94,99.84c0-0.71,0-4.09,0-4.09s0.3-2.21,2.59-2.21c2.28,0,1.52,0,3.53,0s2.32,1.85,2.32,1.85
			s0,3.76,0,4.49s-1.18,0.7-1.2,0c-0.02-0.52,0-2.79,0-3.12c0-0.26-0.53-0.29-0.53,0s0,11.52,0,11.52h-1.87h-0.99h-1.95
			c0,0,0.01-11.26,0-11.58c-0.01-0.31-0.5-0.24-0.51,0c-0.01,0.29,0,3.12,0,3.12C282.25,100.77,280.94,100.55,280.94,99.84z"/>
		
			<linearGradient id="SVGID_8_" gradientUnits="userSpaceOnUse" x1="290.1874" y1="49.3561" x2="305.3039" y2="49.3561" gradientTransform="matrix(1 0 0 -1 0 146)">
			<stop  offset="0" style="stop-color:#1EADCB"/>
			<stop  offset="0.3892" style="stop-color:#20ABCA"/>
			<stop  offset="0.5914" style="stop-color:#26A3C5"/>
			<stop  offset="0.7504" style="stop-color:#3096BC"/>
			<stop  offset="0.8863" style="stop-color:#3E83B0"/>
			<stop  offset="0.939" style="stop-color:#4579AA"/>
		</linearGradient>
		<path class="st10" d="M294.9,108.27v-7.05h-3.59c0,0,3.32-10.99,3.59-11.61s-0.5-0.79-0.68-0.16c-0.18,0.62-1.46,5.06-1.87,6.36
			c-0.44,1.5-2.55,0.68-2.1-0.69c0.45-1.37,2.65-8.09,2.65-8.09s0.85-1.81,2.65-1.95s4,0,4,0c2.03-0.06,3.05,2.34,3.05,2.34
			s2.34,6.04,2.61,7.83c0.58,1.63-1.7,1.83-2.1,0.52c-0.32-0.97-1.87-5.42-2.07-6.23s-0.87-0.47-0.66,0.2
			c0.22,0.66,3.74,11.32,3.74,11.32l-3.56,0.07v7.14h-5.87"/>
	</g>
</g>
</svg>
