<svg id="Capa_1" data-name="Capa 1" xmlns="http://www.w3.org/2000/svg" xmlns:xlink="http://www.w3.org/1999/xlink" viewBox="0 0 800 144"><defs><style>.cls-1{fill:#1a1d3c;}.cls-2{fill:#fff;}.cls-3{fill:url(#linear-gradient);}.cls-4{fill:url(#linear-gradient-2);}.cls-5{fill:url(#linear-gradient-3);}.cls-6{fill:url(#linear-gradient-4);}.cls-7{fill:url(#linear-gradient-5);}.cls-8{fill:url(#linear-gradient-6);}.cls-9{fill:url(#linear-gradient-7);}.cls-10{fill:url(#linear-gradient-8);}</style><linearGradient id="linear-gradient" x1="198.08" y1="71.8" x2="288.8" y2="71.8" gradientUnits="userSpaceOnUse"><stop offset="0" stop-color="#1eadcb"/><stop offset="0.39" stop-color="#20abca"/><stop offset="0.59" stop-color="#26a3c5"/><stop offset="0.75" stop-color="#3096bc"/><stop offset="0.89" stop-color="#3e83b0"/><stop offset="0.94" stop-color="#4579aa"/></linearGradient><linearGradient id="linear-gradient-2" x1="234.6" y1="60.74" x2="250.94" y2="60.74" xlink:href="#linear-gradient"/><linearGradient id="linear-gradient-3" x1="228.24" y1="81.93" x2="233.61" y2="81.93" xlink:href="#linear-gradient"/><linearGradient id="linear-gradient-4" x1="252.31" y1="81.93" x2="257.68" y2="81.93" xlink:href="#linear-gradient"/><linearGradient id="linear-gradient-5" x1="240.94" y1="91.64" x2="244.19" y2="91.64" xlink:href="#linear-gradient"/><linearGradient id="linear-gradient-6" x1="224.11" y1="96.68" x2="237.59" y2="96.68" xlink:href="#linear-gradient"/><linearGradient id="linear-gradient-7" x1="238.24" y1="100.9" x2="246.68" y2="100.9" xlink:href="#linear-gradient"/><linearGradient id="linear-gradient-8" x1="247.49" y1="96.65" x2="262.6" y2="96.65" xlink:href="#linear-gradient"/></defs><title>logo azul-04</title><rect class="cls-1" width="800" height="144"/><path class="cls-2" d="M306.23,88.43h-6.05V99h-2.31V72.79h8.36c5.95,0,8.54,2.31,8.54,7.8C314.77,85.88,312.25,88.43,306.23,88.43Zm0-13.58h-6.05V86.44h6.05c4.1,0,6.2-1.4,6.2-5.85C312.43,76.39,310.43,74.85,306.23,74.85Z"/><path class="cls-2" d="M320,99V71.18l2.1-.14V99Z"/><path class="cls-2" d="M340.53,96.13l-.1,0A7.28,7.28,0,0,1,334,99.35c-3.75,0-6.34-1.85-6.34-6.47,0-3.92,2.41-6.16,7.46-6.16a15.2,15.2,0,0,1,5.14.91V85.07c0-3.92-1.64-5.18-5.28-5.18a12.59,12.59,0,0,0-5.85,1.3l-.24-1.86A15,15,0,0,1,335.32,78c5,0,7.07,2.06,7.07,7.42V99h-1.61Zm-.28-6.82a9.8,9.8,0,0,0-4.83-1c-4,0-5.74,1.64-5.74,4.51,0,3.5,2.1,4.69,4.87,4.69,3,0,5.7-2.1,5.7-4.09Z"/><path class="cls-2" d="M361,99V85.11c0-3.54-2-5-5.46-5a6.93,6.93,0,0,0-5.64,2.8V99h-2.1V78.42l1.51-.14.38,2.49h.11A8.12,8.12,0,0,1,356.11,78c4.37,0,7,2.27,7,7V99Z"/><path class="cls-2" d="M383.61,97.57l.66-4.31a15.76,15.76,0,0,0,3.43,1.45,13,13,0,0,0,3.75.52,5.7,5.7,0,0,0,3.6-.93,3.2,3.2,0,0,0,1.16-2.64,2.39,2.39,0,0,0-.93-2A9.13,9.13,0,0,0,393,88.4c-.93-.37-1.93-.74-3-1.1a13.81,13.81,0,0,1-3-1.42,7.76,7.76,0,0,1-2.29-2.24,6.22,6.22,0,0,1-.92-3.57,8.33,8.33,0,0,1,.53-3,6.38,6.38,0,0,1,1.64-2.45,8,8,0,0,1,2.82-1.67,12.09,12.09,0,0,1,4.08-.61,19.23,19.23,0,0,1,3.81.37,15,15,0,0,1,3.33,1l-.63,4.15a20.23,20.23,0,0,0-3.15-.85,18.28,18.28,0,0,0-3.12-.28,9,9,0,0,0-2.25.24,4.07,4.07,0,0,0-1.45.67,2.39,2.39,0,0,0-.78,1,3.29,3.29,0,0,0-.22,1.17,2.23,2.23,0,0,0,.93,1.89A9.93,9.93,0,0,0,391.6,83c.92.36,1.93.72,3,1.08a12.94,12.94,0,0,1,3,1.42,7.92,7.92,0,0,1,2.28,2.26,6.4,6.4,0,0,1,.92,3.61,7.66,7.66,0,0,1-2.44,6q-2.44,2.19-6.9,2.19a16.17,16.17,0,0,1-4.25-.53A15.8,15.8,0,0,1,383.61,97.57Z"/><path class="cls-2" d="M402.92,92.52a6.11,6.11,0,0,1,1.94-4.74A8.21,8.21,0,0,1,410.55,86a13.52,13.52,0,0,1,2.34.19,19.09,19.09,0,0,1,2,.47V85.1a3.5,3.5,0,0,0-1-2.85,5.25,5.25,0,0,0-3.38-.85,14.73,14.73,0,0,0-3.06.29,16.31,16.31,0,0,0-2.82.9l-.4-3.66a17.48,17.48,0,0,1,7.07-1.34,12.2,12.2,0,0,1,3.74.49,5.53,5.53,0,0,1,3.88,4,13.67,13.67,0,0,1,.43,3.68V99H416l-.41-2.25-.1,0a6.61,6.61,0,0,1-2.52,1.94,8.27,8.27,0,0,1-3.43.69,6.75,6.75,0,0,1-4.78-1.68Q402.92,96,402.92,92.52Zm4.27-.07a3,3,0,0,0,1,2.59,4.17,4.17,0,0,0,2.55.73,5.19,5.19,0,0,0,1.59-.24,5.31,5.31,0,0,0,1.33-.65,3.23,3.23,0,0,0,.93-.95,2,2,0,0,0,.35-1.09V89.76a8.46,8.46,0,0,0-1.31-.39,10.4,10.4,0,0,0-2.26-.21,4.87,4.87,0,0,0-3.16.84A3.06,3.06,0,0,0,407.19,92.45Z"/><path class="cls-2" d="M423.77,99V71.63l4.44-.24V99Z"/><path class="cls-2" d="M432.79,91.83V78h4.45V91.7c0,2.44,1.37,3.66,4.13,3.66s4.1-1.22,4.09-3.66V78h4.44V91.83a7.33,7.33,0,0,1-2.1,5.65q-2.1,2-6.46,2t-6.46-2A7.39,7.39,0,0,1,432.79,91.83Z"/><path class="cls-2" d="M452.8,88.44c0-3.52.66-6.21,2-8.07s3.34-2.78,6.09-2.78a8.48,8.48,0,0,1,3,.54,7.14,7.14,0,0,1,2.51,1.59l.07-.09-.07-2.79V71.61l4.44-.24V99h-3.47l-.49-2-.1,0a6.43,6.43,0,0,1-2.41,1.8,8.64,8.64,0,0,1-3.47.63c-2.78,0-4.82-.9-6.13-2.68S452.8,92.22,452.8,88.44Zm4.62.19a21,21,0,0,0,.23,3.37,5.78,5.78,0,0,0,.77,2.21,3,3,0,0,0,1.45,1.21,6,6,0,0,0,2.25.37,5,5,0,0,0,2.83-.68,4.51,4.51,0,0,0,1.44-1.41V83.6a4.35,4.35,0,0,0-1.68-1.41,5.85,5.85,0,0,0-2.56-.53A5.75,5.75,0,0,0,460,82a3.12,3.12,0,0,0-1.47,1.19,5.49,5.49,0,0,0-.81,2.15A17.63,17.63,0,0,0,457.42,88.63Z"/><path class="cls-2" d="M483.21,88.12q0-5,2.22-7.77c1.48-1.82,3.74-2.72,6.8-2.72a10.19,10.19,0,0,1,3.52.57A6.65,6.65,0,0,1,498.42,80a8.16,8.16,0,0,1,1.72,3,14.11,14.11,0,0,1,.6,4.35c0,.33,0,.69,0,1.07s0,.74-.08,1.07H487.82c.11,2.16.66,3.68,1.63,4.54a6.57,6.57,0,0,0,4.47,1.3,14.36,14.36,0,0,0,5.66-1.12l.53,3.72a13.32,13.32,0,0,1-3,1.08,16.45,16.45,0,0,1-3.69.39c-3.54,0-6.13-.94-7.75-2.82S483.21,91.9,483.21,88.12Zm4.51-1.61h8.92a5.72,5.72,0,0,0-1.22-3.93,4.3,4.3,0,0,0-3.16-1.14,4.18,4.18,0,0,0-3.34,1.19A6.53,6.53,0,0,0,487.72,86.51Z"/><path class="cls-2" d="M503.87,99v-21l3.18-.24.7,2a8,8,0,0,1,2.74-1.7,9,9,0,0,1,3.25-.58,7.11,7.11,0,0,1,5.31,2A8,8,0,0,1,521,85.38V99h-4.44V85.43a3.6,3.6,0,0,0-1-2.88,4.45,4.45,0,0,0-3-.89,5.92,5.92,0,0,0-2.37.51,4.22,4.22,0,0,0-1.82,1.42V99Z"/><path class="cls-2" d="M533,88.54q0-5.31,2.23-8.09t7.15-2.79a14.66,14.66,0,0,1,2.72.26,12.39,12.39,0,0,1,2.39.68l-.29,3.94a8.72,8.72,0,0,0-1.87-.61,10.38,10.38,0,0,0-2-.2,8.42,8.42,0,0,0-2.68.37,3.76,3.76,0,0,0-1.77,1.2,5.32,5.32,0,0,0-1,2.12,13.91,13.91,0,0,0-.3,3.12c0,2.59.48,4.42,1.45,5.51a5.27,5.27,0,0,0,4.16,1.64,8.52,8.52,0,0,0,4.13-1l.31,3.5a7.88,7.88,0,0,1-2.31.93,12.34,12.34,0,0,1-3.08.36q-4.57,0-6.93-2.66T533,88.54Z"/><path class="cls-2" d="M549.53,92.52a6.11,6.11,0,0,1,1.93-4.74,8.26,8.26,0,0,1,5.7-1.76,13.52,13.52,0,0,1,2.34.19,18.88,18.88,0,0,1,2,.47V85.1a3.5,3.5,0,0,0-1-2.85,5.26,5.26,0,0,0-3.38-.85,14.73,14.73,0,0,0-3.06.29,15.78,15.78,0,0,0-2.82.9l-.4-3.66a17.48,17.48,0,0,1,7.07-1.34,12.29,12.29,0,0,1,3.74.49,5.75,5.75,0,0,1,2.49,1.49,5.87,5.87,0,0,1,1.39,2.53,14.08,14.08,0,0,1,.43,3.68V99h-3.4l-.41-2.25-.11,0a6.58,6.58,0,0,1-2.51,1.94,8.32,8.32,0,0,1-3.44.69,6.71,6.71,0,0,1-4.77-1.68Q549.53,96,549.53,92.52Zm4.27-.07a3,3,0,0,0,1,2.59,4.13,4.13,0,0,0,2.55.73,5.19,5.19,0,0,0,1.59-.24,5.31,5.31,0,0,0,1.33-.65,3.32,3.32,0,0,0,.92-.95,1.93,1.93,0,0,0,.35-1.09V89.76a8.12,8.12,0,0,0-1.31-.39,10.24,10.24,0,0,0-2.25-.21,4.86,4.86,0,0,0-3.16.84A3,3,0,0,0,553.8,92.45Z"/><path class="cls-2" d="M569,83.85a5.78,5.78,0,0,1,1.94-4.5c1.28-1.15,3.21-1.72,5.77-1.72a14.41,14.41,0,0,1,5.82,1.17l-.39,3.72a13,13,0,0,0-2.81-.83,15.83,15.83,0,0,0-2.69-.25,4.43,4.43,0,0,0-2.47.59,1.87,1.87,0,0,0-.89,1.65,1.66,1.66,0,0,0,.75,1.44,7.24,7.24,0,0,0,1.87.92c.74.26,1.56.52,2.43.79a10.29,10.29,0,0,1,2.43,1.09,5.91,5.91,0,0,1,1.85,1.81,5.21,5.21,0,0,1,.75,2.94,8.51,8.51,0,0,1-.43,2.79,5.28,5.28,0,0,1-1.38,2.14A6.48,6.48,0,0,1,579.11,99a11.06,11.06,0,0,1-3.52.5,16.13,16.13,0,0,1-3.56-.38,10.28,10.28,0,0,1-3-1.19l.53-3.75a9.62,9.62,0,0,0,2.91,1.22,12.78,12.78,0,0,0,3.11.42,4.11,4.11,0,0,0,2.78-.77,2.47,2.47,0,0,0,.86-1.92,1.86,1.86,0,0,0-.75-1.58,7.41,7.41,0,0,0-1.91-1c-.77-.29-1.59-.56-2.47-.83a11.17,11.17,0,0,1-2.47-1.09,5.7,5.7,0,0,1-1.9-1.82A5.14,5.14,0,0,1,569,83.85Z"/><path class="cls-2" d="M585.48,92.52a6.11,6.11,0,0,1,1.94-4.74A8.21,8.21,0,0,1,593.11,86a13.52,13.52,0,0,1,2.34.19,18.53,18.53,0,0,1,2,.47V85.1a3.5,3.5,0,0,0-1-2.85,5.25,5.25,0,0,0-3.38-.85,14.73,14.73,0,0,0-3.06.29,16.31,16.31,0,0,0-2.82.9l-.4-3.66a17.48,17.48,0,0,1,7.07-1.34,12.2,12.2,0,0,1,3.74.49,5.53,5.53,0,0,1,3.88,4,13.67,13.67,0,0,1,.43,3.68V99h-3.4l-.4-2.25-.11,0a6.66,6.66,0,0,1-2.51,1.94,8.35,8.35,0,0,1-3.44.69,6.71,6.71,0,0,1-4.77-1.68Q585.48,96,585.48,92.52Zm4.27-.07a3,3,0,0,0,1,2.59,4.11,4.11,0,0,0,2.54.73,5.19,5.19,0,0,0,1.59-.24,5.31,5.31,0,0,0,1.33-.65,3.23,3.23,0,0,0,.93-.95,2,2,0,0,0,.35-1.09V89.76a8.46,8.46,0,0,0-1.31-.39,10.37,10.37,0,0,0-2.25-.21,4.89,4.89,0,0,0-3.17.84A3.06,3.06,0,0,0,589.75,92.45Z"/><polygon class="cls-3" points="274.28 107.88 271.8 107.88 271.8 80.09 282.96 80.09 268.65 65.75 268.65 49.05 260.76 49.05 260.76 57.44 242.85 39.23 203.76 79.96 214.37 79.96 214.37 107.88 211.88 107.88 211.88 82.35 198.08 82.35 242.82 35.73 258.28 51.43 258.28 46.66 271.14 46.66 271.14 64.79 288.8 82.49 274.28 82.49 274.28 107.88"/><path class="cls-4" d="M242.77,68.6a7.87,7.87,0,1,1,8.17-7.86A8,8,0,0,1,242.77,68.6Zm0-13a5.15,5.15,0,1,0,5.35,5.14A5.25,5.25,0,0,0,242.77,55.6Z"/><ellipse class="cls-5" cx="230.93" cy="81.93" rx="2.68" ry="2.58"/><ellipse class="cls-6" cx="254.99" cy="81.93" rx="2.68" ry="2.58"/><ellipse class="cls-7" cx="242.57" cy="91.64" rx="1.63" ry="1.57"/><path class="cls-8" d="M224.11,95V88.57a4.1,4.1,0,0,1,4.13-3.48h5.64A3.63,3.63,0,0,1,237.59,88v7.06c0,1.15-1.88,1.11-1.92,0,0-.81,0-4.38,0-4.9s-.84-.46-.84,0v18.11h-3s.06-8,0-9.26-1.59-1.14-1.59,0v9.26h-3.12s0-17.7,0-18.2-.79-.38-.81,0,0,4.91,0,4.91A1.12,1.12,0,0,1,224.11,95Z"/><path class="cls-9" d="M238.24,99.84v-4.1a2.58,2.58,0,0,1,2.58-2.21h3.54a2.28,2.28,0,0,1,2.32,1.85v4.49c0,.73-1.18.71-1.2,0,0-.52,0-2.78,0-3.12s-.53-.29-.53,0v11.52h-4.81V96.7c0-.32-.5-.24-.51,0s0,3.12,0,3.12A.7.7,0,0,1,238.24,99.84Z"/><path class="cls-10" d="M252.19,108.27v-7H248.6s3.32-11,3.59-11.62-.49-.78-.67-.16-1.46,5.06-1.87,6.36a1.1,1.1,0,1,1-2.1-.68l2.64-8.1a3.54,3.54,0,0,1,2.65-1.94,33.79,33.79,0,0,1,4,0c2-.06,3.05,2.34,3.05,2.34a70.67,70.67,0,0,1,2.61,7.83c.58,1.63-1.69,1.82-2.1.52-.32-1-1.86-5.42-2.07-6.23s-.87-.47-.65.19l3.74,11.32-3.56.07v7.14H252"/></svg>