<svg id="Capa_1" data-name="Capa 1" xmlns="http://www.w3.org/2000/svg" xmlns:xlink="http://www.w3.org/1999/xlink" viewBox="0 0 800 144"><defs><style>.cls-1{fill:#1a1d3c;}.cls-2{fill:#fff;}.cls-3{fill:none;}.cls-4{fill:url(#linear-gradient);}.cls-5{fill:#077bbf;}.cls-6{fill:#4190ce;}.cls-7{fill:#00a671;}.cls-8{fill:#57b795;}.cls-9{fill:url(#linear-gradient-2);}</style><linearGradient id="linear-gradient" x1="292.46" y1="68.79" x2="280.83" y2="36.84" gradientUnits="userSpaceOnUse"><stop offset="0" stop-color="#1eadcb"/><stop offset="0.39" stop-color="#20abca"/><stop offset="0.59" stop-color="#26a3c5"/><stop offset="0.75" stop-color="#3096bc"/><stop offset="0.89" stop-color="#3e83b0"/><stop offset="0.94" stop-color="#4579aa"/></linearGradient><linearGradient id="linear-gradient-2" x1="294.16" y1="69.23" x2="305.91" y2="101.51" gradientUnits="userSpaceOnUse"><stop offset="0" stop-color="#8cbf43"/><stop offset="0.38" stop-color="#93c143"/><stop offset="0.63" stop-color="#80b643"/><stop offset="1" stop-color="#5ca243"/></linearGradient></defs><title>logo azul-04</title><rect class="cls-1" width="800" height="144"/><path class="cls-2" d="M383,98.48V65.72l5.51-.07V98.48Z"/><path class="cls-2" d="M483.47,65.87l5.45-.06v6.55H495v4.25h-6.12V91.18a3.08,3.08,0,0,0,.89,2.5,3.83,3.83,0,0,0,2.54.75,8,8,0,0,0,1.15-.08,5.4,5.4,0,0,0,1-.21l.36,4.09a7.56,7.56,0,0,1-1.77.49,14.54,14.54,0,0,1-2.32.18q-3.69,0-5.51-2a8,8,0,0,1-1.82-5.63Z"/><path class="cls-2" d="M328,81.88q0-8.31,3.58-12.47t11.23-4.17a20.91,20.91,0,0,1,4.1.42,16.16,16.16,0,0,1,3.48,1L349.74,72a19.78,19.78,0,0,0-3-.84,18.58,18.58,0,0,0-3.64-.35,13.15,13.15,0,0,0-4.06.55,5.81,5.81,0,0,0-2.71,1.86,8.3,8.3,0,0,0-1.53,3.43,24.51,24.51,0,0,0-.48,5.3,27.32,27.32,0,0,0,.48,5.6,8.66,8.66,0,0,0,1.55,3.6A5.88,5.88,0,0,0,339.15,93a13,13,0,0,0,4.09.57,15.35,15.35,0,0,0,3.56-.39,17.25,17.25,0,0,0,3-1l.71,5.08a19.27,19.27,0,0,1-8.07,1.86q-7.38,0-10.91-4.21T328,81.88Z"/><path class="cls-2" d="M353.66,85.56a24.26,24.26,0,0,1,.7-6.25A10.77,10.77,0,0,1,356.5,75a8.41,8.41,0,0,1,3.67-2.45,18.16,18.16,0,0,1,10.53,0A8.34,8.34,0,0,1,374.33,75a10.86,10.86,0,0,1,2.1,4.28,25.25,25.25,0,0,1,.68,6.25,24.55,24.55,0,0,1-.68,6.2,10.62,10.62,0,0,1-2.1,4.21,8.28,8.28,0,0,1-3.63,2.42,18.62,18.62,0,0,1-10.53,0A8.36,8.36,0,0,1,356.5,96a10.53,10.53,0,0,1-2.14-4.21A23.59,23.59,0,0,1,353.66,85.56Zm5.75,0a23.33,23.33,0,0,0,.33,4.3,7.34,7.34,0,0,0,1.05,2.78,4,4,0,0,0,1.88,1.49,7.63,7.63,0,0,0,2.77.44,7.39,7.39,0,0,0,2.74-.44A3.82,3.82,0,0,0,370,92.64a7.34,7.34,0,0,0,1-2.79,29.05,29.05,0,0,0,0-8.6,7.35,7.35,0,0,0-1-2.78A3.86,3.86,0,0,0,368.18,77a7.6,7.6,0,0,0-2.74-.44,7.85,7.85,0,0,0-2.77.44,4,4,0,0,0-1.88,1.48,7.34,7.34,0,0,0-1.05,2.78A23.53,23.53,0,0,0,359.41,85.56Z"/><path class="cls-2" d="M394.15,79.61A7.17,7.17,0,0,1,396.56,74q2.4-2.16,7.2-2.16A18,18,0,0,1,411,73.31l-.49,4.63a15.54,15.54,0,0,0-3.5-1,19.13,19.13,0,0,0-3.35-.32,5.57,5.57,0,0,0-3.08.73,2.35,2.35,0,0,0-1.12,2.07,2.1,2.1,0,0,0,.94,1.79,9.2,9.2,0,0,0,2.33,1.14c.93.33,1.94.65,3,1a13.11,13.11,0,0,1,3,1.35,7.54,7.54,0,0,1,2.31,2.26A6.53,6.53,0,0,1,412,90.6a10.61,10.61,0,0,1-.54,3.47,6.52,6.52,0,0,1-1.72,2.67,8.09,8.09,0,0,1-3,1.71,13.78,13.78,0,0,1-4.39.62,19.6,19.6,0,0,1-4.43-.48,12.44,12.44,0,0,1-3.73-1.48l.66-4.68A11.86,11.86,0,0,0,398.52,94a15.94,15.94,0,0,0,3.87.53,5,5,0,0,0,3.47-1,3.08,3.08,0,0,0,1.07-2.39,2.32,2.32,0,0,0-.94-2,8.74,8.74,0,0,0-2.37-1.22c-1-.35-2-.7-3.08-1a14.2,14.2,0,0,1-3.08-1.36,7.21,7.21,0,0,1-2.37-2.26A6.5,6.5,0,0,1,394.15,79.61Z"/><path class="cls-2" d="M442,98.53V72.4l4-.3.87,2.55a10.15,10.15,0,0,1,3.42-2.13,11.44,11.44,0,0,1,4-.72,8.86,8.86,0,0,1,6.62,2.46q2.42,2.46,2.42,7.26v17h-5.54v-17A4.49,4.49,0,0,0,456.48,78a5.6,5.6,0,0,0-3.75-1.11,7.4,7.4,0,0,0-3,.64,5.39,5.39,0,0,0-2.28,1.77V98.53Z"/><path class="cls-2" d="M469.68,66.17c0-1.8,1.1-2.69,3.32-2.67s3.32.89,3.3,2.67-1.12,2.61-3.35,2.61a4.34,4.34,0,0,1-2.46-.57A2.33,2.33,0,0,1,469.68,66.17Zm.47,32.36V72.44l5.53-.3V98.53Z"/><path class="cls-2" d="M523.32,79.61A7.17,7.17,0,0,1,525.73,74q2.4-2.16,7.2-2.16a18,18,0,0,1,7.25,1.47l-.49,4.63a15.54,15.54,0,0,0-3.5-1,19,19,0,0,0-3.35-.32,5.59,5.59,0,0,0-3.08.73,2.34,2.34,0,0,0-1.11,2.07,2.09,2.09,0,0,0,.93,1.79,9.37,9.37,0,0,0,2.33,1.14c.93.33,1.94.65,3,1a13.11,13.11,0,0,1,3,1.35,7.54,7.54,0,0,1,2.31,2.26,6.53,6.53,0,0,1,.93,3.67,10.61,10.61,0,0,1-.54,3.47A6.52,6.52,0,0,1,539,96.74a8.09,8.09,0,0,1-3,1.71,13.74,13.74,0,0,1-4.39.62,19.6,19.6,0,0,1-4.43-.48,12.38,12.38,0,0,1-3.72-1.48l.66-4.68A11.8,11.8,0,0,0,527.69,94a15.94,15.94,0,0,0,3.87.53,5.08,5.08,0,0,0,3.48-1,3.07,3.07,0,0,0,1.06-2.39,2.32,2.32,0,0,0-.94-2,8.74,8.74,0,0,0-2.37-1.22c-1-.35-2-.7-3.08-1a14.42,14.42,0,0,1-3.08-1.36,7.21,7.21,0,0,1-2.37-2.26A6.5,6.5,0,0,1,523.32,79.61Z"/><path class="cls-2" d="M435.87,77.48a6.9,6.9,0,0,0-4.81-5,15.56,15.56,0,0,0-4.64-.6,21.64,21.64,0,0,0-8.77,1.66l.5,4.54A18.48,18.48,0,0,1,421.64,77a18,18,0,0,1,3.79-.36,6.59,6.59,0,0,1,4.2,1,4.38,4.38,0,0,1,1.26,3.54v9.6a2.55,2.55,0,0,1-.43,1.35,4.16,4.16,0,0,1-1.16,1.17,6.3,6.3,0,0,1-3.61,1.11,5.17,5.17,0,0,1-3.16-.9,3.79,3.79,0,0,1-1.22-3.22,3.74,3.74,0,0,1,1.24-3,6,6,0,0,1,3.92-1,8.85,8.85,0,0,1,2.38.25c.12,0,.21,0,.24,0V82.75c-.3,0-.3-.1-.72-.17a16.74,16.74,0,0,0-2.89-.24q-4.67,0-7.06,2.19A7.56,7.56,0,0,0,416,90.4q0,4.35,2.24,6.43a8.36,8.36,0,0,0,5.92,2.07,10.14,10.14,0,0,0,4.26-.86,8.2,8.2,0,0,0,3.12-2.39l.13,0,.5,2.79h4.22V82A17.31,17.31,0,0,0,435.87,77.48Z"/><path class="cls-2" d="M518.18,77.48a6.86,6.86,0,0,0-4.8-5,15.56,15.56,0,0,0-4.64-.6A21.64,21.64,0,0,0,500,73.55l.49,4.54A18.8,18.8,0,0,1,504,77a18,18,0,0,1,3.79-.36,6.59,6.59,0,0,1,4.2,1,4.38,4.38,0,0,1,1.26,3.54v9.6a2.48,2.48,0,0,1-.44,1.35,4.12,4.12,0,0,1-1.15,1.17A6.3,6.3,0,0,1,508,94.43a5.17,5.17,0,0,1-3.16-.9,4.58,4.58,0,0,1,0-6.25,6,6,0,0,1,3.92-1,8.85,8.85,0,0,1,2.38.25c.11,0,.21,0,.24,0V82.75c-.3,0-.3-.1-.72-.17a16.85,16.85,0,0,0-2.9-.24q-4.65,0-7.05,2.19a7.52,7.52,0,0,0-2.41,5.87q0,4.35,2.24,6.43a8.35,8.35,0,0,0,5.91,2.07,10.21,10.21,0,0,0,4.27-.86,8.09,8.09,0,0,0,3.11-2.39l.14,0,.5,2.79h4.22V82A16.87,16.87,0,0,0,518.18,77.48Z"/><path class="cls-3" d="M266.88,76.17h0Z"/><path class="cls-4" d="M304.81,41.61c-.62-6.27-4-9.66-8.62-9.66a14.12,14.12,0,0,0-7.14,2.27c-5.43,3.26-9.23,8-12.13,13.48-1.47,2.77-2.35,4.67-3.79,7.88.44.65.82,1.22,1.14,1.66,1.67,2.38,8.42,14.2,8.42,14.2l-10.88,3.27c7.27-2.13,14-4,21.55-6.28a5.14,5.14,0,0,0,2.51-1.34C301.81,59.65,305.78,51.36,304.81,41.61Z"/><path class="cls-5" d="M274.27,57.24c-.32-.44-.7-1-1.14-1.66l-.23.53c-.65,1.46-7.25,20-7.25,20h1.25l4.91-1.46,10.88-3.27S275.94,59.62,274.27,57.24Z"/><path class="cls-5" d="M267.47,76l4.34-1.31-4.91,1.46Z"/><path class="cls-6" d="M272.9,56.11l.23-.53c-1.9-2.83-4.77-7.16-6.73-9-2.74-2.58-6.31-2.45-7.39,3.18a9.24,9.24,0,0,0-.2,1.57c-.23,8.35,1.41,14.94,4.67,23.35a2.7,2.7,0,0,0,3.39,1.49h-1.22S272.25,57.57,272.9,56.11Z"/><path class="cls-7" d="M283.52,87.21c0-1.92-.47-13.93-.47-13.93l-5.5,1.57-9.11,2.63-1.83,1s12.46,8.06,16.38,10.7l.54.36C283.52,88.5,283.51,87.69,283.52,87.21Z"/><path class="cls-8" d="M266.61,78.43l1.83-1c3-.87-.64.14-.64.14-1.53.59-2.41,1.41-2.1,3.13,2.19,6.65,4.37,13.19,9.1,19a9.44,9.44,0,0,0,1,1c3.84,3.38,6.39,3.31,7.34-1.7a65.81,65.81,0,0,0,.39-9.53l-.54-.36C279.07,86.49,266.61,78.43,266.61,78.43Z"/><path class="cls-9" d="M317.94,85.41c-4.23-8.33-11.68-12.94-20.27-15.86a2.64,2.64,0,0,0-.81-.12,7.14,7.14,0,0,0-1.89.33c-5.82,1.68-12,3.52-12,3.52s.49,12,.47,13.93c0,.48,0,1.3,0,2.28,3,2,6.34,3.9,8.92,5.36,5.16,2.91,10.62,4.75,16.66,4.58C318,99.18,321.92,93.26,317.94,85.41Z"/></svg>