<svg id="Capa_1" data-name="Capa 1" xmlns="http://www.w3.org/2000/svg" xmlns:xlink="http://www.w3.org/1999/xlink" viewBox="0 0 800 144"><defs><style>.cls-1{fill:#1a1d3c;}.cls-2{fill:#fff;}.cls-3{fill:none;}.cls-4{fill:url(#Degradado_sin_nombre_13);}.cls-5{fill:#077bbf;}.cls-6{fill:#4190ce;}.cls-7{fill:#00a671;}.cls-8{fill:#57b795;}.cls-9{fill:url(#linear-gradient);}</style><linearGradient id="Degradado_sin_nombre_13" x1="276.46" y1="69.26" x2="264.84" y2="37.32" gradientUnits="userSpaceOnUse"><stop offset="0.02" stop-color="#1eadcb"/><stop offset="0.4" stop-color="#20abca"/><stop offset="0.6" stop-color="#26a3c5"/><stop offset="0.76" stop-color="#3096bc"/><stop offset="0.9" stop-color="#3e83b0"/><stop offset="0.95" stop-color="#4579aa"/></linearGradient><linearGradient id="linear-gradient" x1="278.02" y1="69.8" x2="289.72" y2="101.95" gradientUnits="userSpaceOnUse"><stop offset="0" stop-color="#8cbf43"/><stop offset="0.38" stop-color="#93c143"/><stop offset="0.63" stop-color="#80b643"/><stop offset="1" stop-color="#5ca243"/></linearGradient></defs><title>logo azul-04</title><rect class="cls-1" width="800" height="144"/><path class="cls-2" d="M499.62,66.23l5.37-.11.06,6.55,6,0,0,4.25-6,.06.13,14.57a3.1,3.1,0,0,0,.9,2.48,3.72,3.72,0,0,0,2.51.74,9.79,9.79,0,0,0,1.14-.1,4.33,4.33,0,0,0,1-.22l.39,4.09a7.22,7.22,0,0,1-1.74.5,14,14,0,0,1-2.28.21c-2.43,0-4.25-.62-5.46-1.94a8.12,8.12,0,0,1-1.84-5.62Z"/><path class="cls-2" d="M411.62,80.76a7.21,7.21,0,0,1,2.32-5.63Q416.29,73,421,72.91a17.27,17.27,0,0,1,7.16,1.4l-.44,4.63a15.16,15.16,0,0,0-3.46-1,19.35,19.35,0,0,0-3.31-.29,5.43,5.43,0,0,0-3,.76,2.34,2.34,0,0,0-1.08,2.07,2.09,2.09,0,0,0,.94,1.79,9.21,9.21,0,0,0,2.31,1.13c.92.31,1.92.63,3,1a13.1,13.1,0,0,1,3,1.33,7.44,7.44,0,0,1,2.3,2.24,6.64,6.64,0,0,1,.95,3.65,10.64,10.64,0,0,1-.51,3.48,6.48,6.48,0,0,1-1.67,2.69,8,8,0,0,1-2.94,1.74,13.66,13.66,0,0,1-4.33.65,19.7,19.7,0,0,1-4.37-.43,12.52,12.52,0,0,1-3.69-1.45l.61-4.69a11.39,11.39,0,0,0,3.58,1.5,15.53,15.53,0,0,0,3.83.49,5,5,0,0,0,3.42-1,3.13,3.13,0,0,0,1-2.41,2.32,2.32,0,0,0-.94-2A8.82,8.82,0,0,0,421,89c-.95-.34-2-.68-3-1a13.88,13.88,0,0,1-3.05-1.33,7.27,7.27,0,0,1-2.37-2.25A6.57,6.57,0,0,1,411.62,80.76Z"/><path class="cls-2" d="M459,99.26l-.23-26.13,3.91-.34.88,2.54a9.94,9.94,0,0,1,3.35-2.16,11.13,11.13,0,0,1,4-.75,8.73,8.73,0,0,1,6.56,2.4q2.4,2.45,2.45,7.23l.15,17-5.46.05-.16-17a4.52,4.52,0,0,0-1.3-3.58,5.51,5.51,0,0,0-3.71-1.08,7.09,7.09,0,0,0-2.91.67A5.33,5.33,0,0,0,464.25,80l.18,19.26Z"/><path class="cls-2" d="M486,66.65c0-1.79,1.07-2.69,3.26-2.7s3.28.86,3.28,2.64-1.08,2.62-3.29,2.64a4.15,4.15,0,0,1-2.42-.55A2.33,2.33,0,0,1,486,66.65ZM486.76,99l-.23-26.09,5.46-.35L492.23,99Z"/><path class="cls-2" d="M539.06,79.62A7.22,7.22,0,0,1,541.38,74q2.37-2.17,7.09-2.22a17.44,17.44,0,0,1,7.16,1.41l-.43,4.63a16,16,0,0,0-3.46-1,19.43,19.43,0,0,0-3.31-.29,5.38,5.38,0,0,0-3,.77,2.35,2.35,0,0,0-1.09,2.07,2.12,2.12,0,0,0,.94,1.79,9.21,9.21,0,0,0,2.31,1.12q1.38.47,3,1a12.68,12.68,0,0,1,3,1.33,7.4,7.4,0,0,1,2.3,2.23,6.57,6.57,0,0,1,.95,3.66,11,11,0,0,1-.5,3.48,6.66,6.66,0,0,1-1.67,2.68,8,8,0,0,1-2.95,1.74,13.32,13.32,0,0,1-4.32.65,19.15,19.15,0,0,1-4.38-.43,12.26,12.26,0,0,1-3.69-1.45l.61-4.68a11.34,11.34,0,0,0,3.59,1.49,15.41,15.41,0,0,0,3.83.49,4.94,4.94,0,0,0,3.41-1,3.09,3.09,0,0,0,1-2.4,2.35,2.35,0,0,0-.94-2,8.9,8.9,0,0,0-2.35-1.21c-1-.34-2-.67-3.05-1a13.62,13.62,0,0,1-3-1.33A7.21,7.21,0,0,1,540,83.29,6.55,6.55,0,0,1,539.06,79.62Z"/><path class="cls-2" d="M452.76,78.26A7.28,7.28,0,0,0,451,75.13,7.08,7.08,0,0,0,448,73.32a15,15,0,0,0-4.58-.57,21.21,21.21,0,0,0-8.64,1.74l.53,4.53a19.84,19.84,0,0,1,3.44-1.15,18,18,0,0,1,3.74-.38,6.45,6.45,0,0,1,4.15,1A4.44,4.44,0,0,1,447.88,82l.09,9.6a2.57,2.57,0,0,1-.42,1.36,4.08,4.08,0,0,1-1.13,1.18,6.16,6.16,0,0,1-1.62.82,5.88,5.88,0,0,1-1.93.32,5,5,0,0,1-3.13-.88,4.61,4.61,0,0,1,0-6.24,5.8,5.8,0,0,1,3.86-1.08,8.8,8.8,0,0,1,2.35.22c.11,0,.21.05.23,0l0-3.72c-.3,0-.3-.09-.71-.17a16.52,16.52,0,0,0-2.86-.21q-4.59,0-6.95,2.25a7.59,7.59,0,0,0-2.31,5.89c0,2.9.78,5,2.26,6.41a8.17,8.17,0,0,0,5.85,2,10.18,10.18,0,0,0,4.2-.9,8.26,8.26,0,0,0,3.06-2.42l.13,0,.52,2.78,4.16,0-.15-16.44A17.19,17.19,0,0,0,452.76,78.26Z"/><path class="cls-2" d="M534,77.54a7.28,7.28,0,0,0-1.73-3.13,7.09,7.09,0,0,0-3.06-1.82A14.93,14.93,0,0,0,524.6,72,21,21,0,0,0,516,73.76l.53,4.54a18.94,18.94,0,0,1,3.43-1.15,17.4,17.4,0,0,1,3.74-.39,6.47,6.47,0,0,1,4.15,1,4.41,4.41,0,0,1,1.28,3.53l.08,9.6a2.51,2.51,0,0,1-.42,1.36,4.17,4.17,0,0,1-1.12,1.18,6.48,6.48,0,0,1-1.62.82,6.21,6.21,0,0,1-1.94.32A5,5,0,0,1,521,93.7a4.64,4.64,0,0,1,0-6.25,5.93,5.93,0,0,1,3.86-1.08,8.8,8.8,0,0,1,2.35.22c.12,0,.21,0,.23,0l0-3.73c-.29,0-.29-.09-.7-.16a16.5,16.5,0,0,0-2.86-.22c-3.07,0-5.38.78-6.95,2.25a7.62,7.62,0,0,0-2.32,5.9c0,2.9.78,5,2.26,6.41a8.2,8.2,0,0,0,5.86,2,9.87,9.87,0,0,0,4.2-.9,8,8,0,0,0,3-2.42l.13,0,.52,2.79,4.17,0-.15-16.44A17.52,17.52,0,0,0,534,77.54Z"/><path class="cls-3" d="M251.17,76.67h0Z"/><path class="cls-4" d="M288.6,42.11c-.61-6.27-4-9.66-8.51-9.66a13.77,13.77,0,0,0-7,2.27c-5.36,3.26-9.11,8-12,13.48-1.45,2.77-2.32,4.67-3.74,7.88.44.65.81,1.22,1.12,1.66,1.66,2.38,8.31,14.2,8.31,14.2L256,75.21c7.17-2.13,13.77-4,21.26-6.28a5,5,0,0,0,2.47-1.34C285.64,60.15,289.56,51.86,288.6,42.11Z"/><path class="cls-5" d="M258.46,57.74c-.31-.44-.68-1-1.12-1.66l-.23.53c-.64,1.46-7.15,20-7.15,20h1.24L256,75.21l10.73-3.27S260.12,60.12,258.46,57.74Z"/><path class="cls-5" d="M251.76,76.52,256,75.21l-4.84,1.46Z"/><path class="cls-6" d="M257.11,56.61l.23-.53c-1.87-2.83-4.71-7.16-6.64-9-2.7-2.58-6.23-2.45-7.29,3.18a9.24,9.24,0,0,0-.2,1.57c-.23,8.35,1.39,14.94,4.61,23.35a2.66,2.66,0,0,0,3.35,1.49H250S256.47,58.07,257.11,56.61Z"/><path class="cls-7" d="M267.59,87.71c0-1.92-.46-13.93-.46-13.93l-5.43,1.57-9,2.63-1.8,1S263.2,87,267.07,89.63l.53.36C267.6,89,267.59,88.19,267.59,87.71Z"/><path class="cls-8" d="M250.91,78.93l1.8-1c3-.87-.63.14-.63.14-1.51.59-2.37,1.41-2.07,3.13,2.16,6.65,4.31,13.19,9,19a9.26,9.26,0,0,0,1,1c3.8,3.38,6.31,3.31,7.24-1.7A65.81,65.81,0,0,0,267.6,90l-.53-.36C263.2,87,250.91,78.93,250.91,78.93Z"/><path class="cls-9" d="M301.55,85.91c-4.17-8.33-11.52-12.94-20-15.86a2.53,2.53,0,0,0-.8-.12,6.92,6.92,0,0,0-1.86.33c-5.74,1.68-11.79,3.52-11.79,3.52s.48,12,.47,13.93c0,.48,0,1.3,0,2.28,2.92,2,6.25,3.9,8.79,5.36,5.09,2.91,10.48,4.75,16.44,4.58C301.59,99.68,305.48,93.76,301.55,85.91Z"/><path class="cls-2" d="M312.1,99V66.79h6.51l8.15,20.52L328,90.53h.12l1.18-3.22,8.23-20.52H344V99h-5.37V80.39l.08-3.48-.13,0-1.22,3.27L329.92,99h-4l-7.42-18.84-1.22-3.27-.09,0,0,3.48V99Z"/><path class="cls-2" d="M348.85,85.59q0-6.18,2.69-9.53c1.79-2.22,4.53-3.34,8.23-3.34a12.36,12.36,0,0,1,4.26.7,8.22,8.22,0,0,1,3.23,2.19,10,10,0,0,1,2.08,3.74,17.63,17.63,0,0,1,.73,5.34c0,.4,0,.84,0,1.31a10.57,10.57,0,0,1-.1,1.31H354.43c.14,2.65.8,4.5,2,5.57s3,1.59,5.41,1.59a17.13,17.13,0,0,0,6.84-1.37l.64,4.56A15.44,15.44,0,0,1,365.64,99a19.51,19.51,0,0,1-4.47.48q-6.42,0-9.37-3.46T348.85,85.59Zm5.46-2H365.1c-.05-2.28-.55-3.88-1.48-4.82a5.11,5.11,0,0,0-3.81-1.4,5,5,0,0,0-4,1.46A8.1,8.1,0,0,0,354.31,83.62Z"/><path class="cls-2" d="M373.1,86q0-6.49,2.36-9.9t7.37-3.41a10.08,10.08,0,0,1,3.66.66,8.8,8.8,0,0,1,3,2l.09-.11-.09-3.42V65.35l5.38-.3V99h-4.2l-.6-2.41-.12,0a7.79,7.79,0,0,1-2.92,2.21,10.32,10.32,0,0,1-4.19.76q-5.06,0-7.42-3.28T373.1,86Zm5.58.23a25.38,25.38,0,0,0,.28,4.14,7.13,7.13,0,0,0,.93,2.7,3.71,3.71,0,0,0,1.76,1.49,7.18,7.18,0,0,0,2.71.45,6.1,6.1,0,0,0,3.43-.83,5.51,5.51,0,0,0,1.74-1.74V80.05a5.17,5.17,0,0,0-2-1.73,7.88,7.88,0,0,0-5.76-.2A4,4,0,0,0,380,79.58a7.1,7.1,0,0,0-1,2.64A22.43,22.43,0,0,0,378.68,86.22Z"/><path class="cls-2" d="M401.17,67.14c0-1.77,1.07-2.65,3.22-2.63s3.22.87,3.21,2.63-1.09,2.56-3.26,2.56a4.08,4.08,0,0,1-2.38-.56A2.28,2.28,0,0,1,401.17,67.14ZM401.62,99V73.31L407,73V99Z"/></svg>