<svg id="Capa_1" data-name="Capa 1" xmlns="http://www.w3.org/2000/svg" xmlns:xlink="http://www.w3.org/1999/xlink" viewBox="0 0 800 144"><defs><style>.cls-1{fill:#1a1d3c;}.cls-2{fill:none;}.cls-3{fill:url(#Degradado_sin_nombre_13);}.cls-4{fill:#077bbf;}.cls-5{fill:#4190ce;}.cls-6{fill:#00a671;}.cls-7{fill:#57b795;}.cls-8{fill:url(#linear-gradient);}.cls-9{fill:#fff;}</style><linearGradient id="Degradado_sin_nombre_13" x1="228.29" y1="73.26" x2="216.67" y2="41.32" gradientUnits="userSpaceOnUse"><stop offset="0.02" stop-color="#1eadcb"/><stop offset="0.4" stop-color="#20abca"/><stop offset="0.6" stop-color="#26a3c5"/><stop offset="0.76" stop-color="#3096bc"/><stop offset="0.9" stop-color="#3e83b0"/><stop offset="0.95" stop-color="#4579aa"/></linearGradient><linearGradient id="linear-gradient" x1="229.85" y1="73.8" x2="241.55" y2="105.95" gradientUnits="userSpaceOnUse"><stop offset="0" stop-color="#8cbf43"/><stop offset="0.38" stop-color="#93c143"/><stop offset="0.63" stop-color="#80b643"/><stop offset="1" stop-color="#5ca243"/></linearGradient></defs><title>logo azul-04</title><rect class="cls-1" width="800" height="144"/><path class="cls-2" d="M203,80.67h0Z"/><path class="cls-3" d="M240.43,46.11c-.61-6.27-4-9.66-8.51-9.66a13.77,13.77,0,0,0-7,2.27c-5.36,3.26-9.11,8-12,13.48-1.45,2.77-2.32,4.67-3.74,7.88.44.65.81,1.22,1.12,1.66,1.65,2.38,8.31,14.2,8.31,14.2l-10.73,3.27c7.17-2.13,13.77-4,21.26-6.28a5,5,0,0,0,2.47-1.34C237.47,64.15,241.39,55.86,240.43,46.11Z"/><path class="cls-4" d="M210.29,61.74c-.31-.44-.68-1-1.12-1.66l-.23.53c-.64,1.46-7.15,20-7.15,20H203l4.84-1.46,10.73-3.27S211.94,64.12,210.29,61.74Z"/><path class="cls-4" d="M203.59,80.52l4.28-1.31L203,80.67Z"/><path class="cls-5" d="M208.94,60.61l.23-.53c-1.87-2.83-4.71-7.16-6.64-9-2.7-2.58-6.23-2.45-7.29,3.18a9.24,9.24,0,0,0-.2,1.57c-.23,8.35,1.39,14.94,4.61,23.35A2.66,2.66,0,0,0,203,80.67h-1.21S208.3,62.07,208.94,60.61Z"/><path class="cls-6" d="M219.42,91.71c0-1.92-.46-13.93-.46-13.93l-5.43,1.57-9,2.63-1.8,1S215,91,218.9,93.63l.53.36C219.43,93,219.42,92.19,219.42,91.71Z"/><path class="cls-7" d="M202.74,82.93l1.8-1c3-.87-.63.14-.63.14-1.51.59-2.37,1.41-2.07,3.13,2.16,6.65,4.31,13.19,9,19a9.26,9.26,0,0,0,1,1c3.8,3.38,6.31,3.31,7.24-1.7a65.81,65.81,0,0,0,.39-9.53l-.53-.36C215,91,202.74,82.93,202.74,82.93Z"/><path class="cls-8" d="M253.38,89.91c-4.17-8.33-11.52-12.94-20-15.86a2.53,2.53,0,0,0-.8-.12,6.92,6.92,0,0,0-1.86.33c-5.74,1.68-11.79,3.52-11.79,3.52s.48,12,.47,13.93c0,.48,0,1.3,0,2.28,2.92,2,6.25,3.9,8.79,5.36,5.09,2.91,10.48,4.75,16.44,4.58C253.42,103.68,257.31,97.76,253.38,89.91Z"/><path class="cls-9" d="M289.42,74.27a18,18,0,0,0-7.17-1.49c-7.53,0-11.05,3.43-11.05,13.9,0,11.18,3.56,14.7,11.18,14.7a15.05,15.05,0,0,0,7.13-1.71l.48,2.5a18,18,0,0,1-8,2c-9.6,0-13.82-5.33-13.82-17.48,0-11.57,4.31-16.67,13.9-16.67a19.9,19.9,0,0,1,7.7,1.58Z"/><path class="cls-9" d="M304.51,104.11c-7.57,0-11-3.78-11-13.51s3.43-13.47,11-13.47S315.33,81,315.33,90.6,312.12,104.11,304.51,104.11Zm0-2.33c5.81,0,8.05-3.08,8.05-11.18s-2.24-11.09-8.05-11.09-8.19,3-8.19,11.09S298.66,101.78,304.51,101.78Z"/><path class="cls-9" d="M322.06,103.54v-35l2.64-.18v35.21Z"/><path class="cls-9" d="M339.57,104.07a12.94,12.94,0,0,1-7.92-2.38l.44-2.42a12.14,12.14,0,0,0,7.44,2.46c4.4,0,6.25-2.24,6.25-5.23,0-7-14-4-14-12.54,0-4.23,3-6.83,8.62-6.83a15.35,15.35,0,0,1,6.82,1.5L347,81a16.44,16.44,0,0,0-6.6-1.45c-3.7,0-6,1.67-6,4.31,0,6.47,14,3.26,14,12.41C348.29,100.94,345.6,104.07,339.57,104.07Z"/><path class="cls-9" d="M368.53,99.89l-.13,0c-1.41,2.47-4.49,4.09-8.1,4.09-4.71,0-8-2.33-8-8.14,0-4.92,3-7.74,9.38-7.74a19.3,19.3,0,0,1,6.47,1.14V86c0-4.93-2.07-6.51-6.65-6.51a15.76,15.76,0,0,0-7.35,1.63l-.31-2.34a18.9,18.9,0,0,1,8.1-1.71c6.34,0,8.89,2.59,8.89,9.33v17.16h-2Zm-.35-8.59a12.51,12.51,0,0,0-6.08-1.23c-5,0-7.21,2.07-7.21,5.68,0,4.4,2.64,5.9,6.11,5.9,3.79,0,7.18-2.64,7.18-5.15Z"/><path class="cls-9" d="M394.31,103.54V86c0-4.44-2.46-6.33-6.86-6.33-2.55,0-5.64,1.23-7.09,3.52v20.33h-2.64V77.62l1.89-.18.49,3.13h.13a10.21,10.21,0,0,1,7.88-3.44c5.5,0,8.84,2.87,8.84,8.85v17.56Z"/><path class="cls-9" d="M406.45,72.25c-1.32,0-2.06-.44-2.06-1.85,0-1.19.74-1.85,2.06-1.85s2.07.66,2.07,1.85S407.77,72.25,406.45,72.25Zm-1.36,31.29V77.71l2.68-.22v26.05Z"/><path class="cls-9" d="M420.71,79.73V97.29c0,3.12,1.63,4.36,4.22,4.36a6.64,6.64,0,0,0,2.21-.36l.22,2.12a9.16,9.16,0,0,1-3.13.52c-4.05,0-6.2-2.11-6.2-6.55V79.73h-4V77.58h4.09l.53-6.83,2.11-.26v7.09h6.82v2.15Z"/><path class="cls-9" d="M446.76,99.89l-.13,0c-1.41,2.47-4.49,4.09-8.1,4.09-4.71,0-8-2.33-8-8.14,0-4.92,3-7.74,9.37-7.74a19.3,19.3,0,0,1,6.47,1.14V86c0-4.93-2.07-6.51-6.65-6.51a15.76,15.76,0,0,0-7.35,1.63l-.3-2.34a18.82,18.82,0,0,1,8.09-1.71c6.34,0,8.89,2.59,8.89,9.33v17.16h-2Zm-.35-8.59a12.49,12.49,0,0,0-6.07-1.23c-5,0-7.22,2.07-7.22,5.68,0,4.4,2.64,5.9,6.11,5.9,3.79,0,7.18-2.64,7.18-5.15Z"/><path class="cls-9" d="M462.42,104.07a12.94,12.94,0,0,1-7.92-2.38l.44-2.42a12.11,12.11,0,0,0,7.44,2.46c4.4,0,6.25-2.24,6.25-5.23,0-7-14-4-14-12.54,0-4.23,3-6.83,8.63-6.83a15.38,15.38,0,0,1,6.82,1.5L469.81,81a16.35,16.35,0,0,0-6.59-1.45c-3.7,0-6,1.67-6,4.31,0,6.47,13.95,3.26,13.95,12.41C471.14,100.94,468.45,104.07,462.42,104.07Z"/><path class="cls-9" d="M476,103.54v-33h11.9a20.34,20.34,0,0,1,6.58.94A10.46,10.46,0,0,1,499,74.4a12.42,12.42,0,0,1,2.61,5.08,29,29,0,0,1,.83,7.41,28.42,28.42,0,0,1-.9,7.67,12.69,12.69,0,0,1-2.71,5.15,10.6,10.6,0,0,1-4.52,2.9,19.54,19.54,0,0,1-6.33.93ZM482.1,98h5.76a12.91,12.91,0,0,0,3.69-.46,5.22,5.22,0,0,0,2.56-1.67,7.91,7.91,0,0,0,1.49-3.38,26.62,26.62,0,0,0,.48-5.59,25.5,25.5,0,0,0-.44-5.28,7.6,7.6,0,0,0-1.43-3.27,5.12,5.12,0,0,0-2.55-1.69,13.16,13.16,0,0,0-3.8-.48H482.1Z"/><path class="cls-9" d="M505.54,89.81q0-6.34,2.79-9.76t8.55-3.43a12.78,12.78,0,0,1,4.43.72,8.6,8.6,0,0,1,3.36,2.24,10.38,10.38,0,0,1,2.16,3.84,17.77,17.77,0,0,1,.75,5.47c0,.41,0,.86,0,1.34a13.21,13.21,0,0,1-.11,1.34H511.34q.21,4.08,2.05,5.71c1.22,1.1,3.09,1.64,5.62,1.64a17.88,17.88,0,0,0,7.11-1.42l.66,4.68a16.47,16.47,0,0,1-3.8,1.36,20.45,20.45,0,0,1-4.64.49q-6.68,0-9.74-3.54T505.54,89.81Zm5.67-2h11.21q-.09-3.5-1.53-4.94a5.39,5.39,0,0,0-4-1.44,5.29,5.29,0,0,0-4.2,1.5A8.29,8.29,0,0,0,511.21,87.79Z"/><path class="cls-9" d="M531.51,103.54V77.18l4-.3.88,2.57a10,10,0,0,1,3.44-2.15,11.62,11.62,0,0,1,4.09-.72,8.93,8.93,0,0,1,6.68,2.48c1.62,1.65,2.44,4.09,2.44,7.31v17.17h-5.59V86.43a4.51,4.51,0,0,0-1.3-3.62,5.63,5.63,0,0,0-3.78-1.12,7.34,7.34,0,0,0-3,.64,5.49,5.49,0,0,0-2.3,1.78v19.43Z"/><path class="cls-9" d="M556.06,81.37V77.05h3.48l.93-6.21,4.49-.43v6.64h6.21v4.32H565V96.14a3.15,3.15,0,0,0,.9,2.53,3.88,3.88,0,0,0,2.58.77,8.31,8.31,0,0,0,1.17-.09,4.67,4.67,0,0,0,1-.22l.36,4.16a7.62,7.62,0,0,1-1.79.49,14.91,14.91,0,0,1-2.35.19q-3.75,0-5.59-2a8.18,8.18,0,0,1-1.85-5.72V81.37Z"/><path class="cls-9" d="M573.19,95.34a7.66,7.66,0,0,1,2.43-6c1.63-1.48,4-2.22,7.16-2.22a16.34,16.34,0,0,1,2.94.25,21.89,21.89,0,0,1,2.55.59V86A4.42,4.42,0,0,0,587,82.43a6.67,6.67,0,0,0-4.25-1.06,19.29,19.29,0,0,0-3.85.35,20.08,20.08,0,0,0-3.54,1.14l-.5-4.6a21.68,21.68,0,0,1,8.88-1.68,15.61,15.61,0,0,1,4.71.61,6.91,6.91,0,0,1,4.87,5.06,17.34,17.34,0,0,1,.54,4.62v16.67h-4.27l-.51-2.83-.14,0a8.25,8.25,0,0,1-3.16,2.42,10.27,10.27,0,0,1-4.32.88,8.43,8.43,0,0,1-6-2.11C573.94,100.46,573.19,98.28,573.19,95.34Zm5.37-.08a3.81,3.81,0,0,0,1.23,3.25,5.17,5.17,0,0,0,3.2.93,6.59,6.59,0,0,0,2-.31,6.5,6.5,0,0,0,1.67-.82,4.13,4.13,0,0,0,1.17-1.19,2.55,2.55,0,0,0,.44-1.37V91.87a11.25,11.25,0,0,0-1.65-.48,12.69,12.69,0,0,0-2.83-.27,6.09,6.09,0,0,0-4,1.06A3.82,3.82,0,0,0,578.56,95.26Z"/><path class="cls-9" d="M599.4,103.54V69.08l5.58-.3v34.76Z"/></svg>