<?xml version="1.0" encoding="utf-8"?>
<!-- Generator: Adobe Illustrator 23.0.0, SVG Export Plug-In . SVG Version: 6.00 Build 0)  -->
<svg version="1.1" id="Capa_1" xmlns="http://www.w3.org/2000/svg" xmlns:xlink="http://www.w3.org/1999/xlink" x="0px" y="0px"
	 viewBox="0 0 122.7 60" style="enable-background:new 0 0 122.7 60;" xml:space="preserve">
<style type="text/css">
	.st0{fill:#49BFED;}
	.st1{fill:#FFFFFF;}
	.st2{enable-background:new    ;}
</style>
<title>logo S&amp;amp;S</title>
<circle class="st0" cx="10.6" cy="22.3" r="4.4"/>
<circle class="st1" cx="10.8" cy="37.4" r="4.5"/>
<path class="st1" d="M12.4,28.8c-1.9-0.4-2.7,2.5-0.8,2.9c4.8,1,6.7,7.2,2.5,10.3c-2.6,1.8-6.2,1.1-8-1.5c-0.8-1.2-1.1-2.6-1-4
	c0.3-1.9-2.6-2.7-2.9-0.8c-0.6,3.4,0.8,6.9,3.7,8.9c2.9,2,6.8,2,9.7,0C22,40.2,19.8,30.4,12.4,28.8z"/>
<path class="st0" d="M15.6,15.6c-2.7-2-6.3-2.2-9.2-0.5C0,18.9,1.6,28.4,8.5,30.4c0.8,0.2,1.6-0.2,1.8-1c0.2-0.8-0.2-1.6-1-1.8l0,0
	c-4.5-1.3-5.6-7.4-1.4-9.8c2.6-1.5,5.9-0.6,7.4,1.9c0.7,1.2,0.9,2.6,0.6,4c-0.4,1.9,2.4,2.7,2.9,0.8C19.5,21.1,18.3,17.7,15.6,15.6z
	"/>
<circle class="st1" cx="28.9" cy="22.3" r="4.4"/>
<circle class="st0" cx="28.5" cy="37.5" r="4.5"/>
<path class="st0" d="M27.1,28.8c1.9-0.4,2.7,2.5,0.8,2.9c-4.8,1-6.7,7.2-2.5,10.3c2.6,1.8,6.2,1.1,8-1.5c0.8-1.2,1.1-2.6,1-4
	c-0.3-1.9,2.6-2.7,2.9-0.8c0.6,3.4-0.8,6.9-3.7,8.9c-2.9,2-6.8,2-9.7,0C17.6,40.2,19.7,30.4,27.1,28.8z"/>
<path class="st1" d="M23.9,15.6c2.7-2,6.3-2.2,9.2-0.5c6.4,3.8,4.8,13.3-2.1,15.2c-0.8,0.2-1.6-0.2-1.8-1s0.2-1.6,1-1.8
	c4.5-1.3,5.6-7.4,1.5-9.8c-2.6-1.5-5.9-0.6-7.4,2c-0.7,1.2-0.9,2.6-0.6,3.9c0.4,1.9-2.4,2.7-2.9,0.8C20,21.1,21.2,17.7,23.9,15.6z"
	/>
<g>
	<g class="st2">
		<path class="st1" d="M48.3,28.7c0,0.6-0.2,1-0.6,1.4c-0.4,0.4-0.9,0.6-1.4,0.6c-0.4,0-0.7-0.1-1-0.3s-0.6-0.4-0.7-0.7
			c0,0,0-0.1,0-0.1c0-0.1,0.1-0.2,0.2-0.2c0.1,0,0.1,0,0.1,0.1c0,0.1,0.1,0.1,0.2,0.2c0.3,0.4,0.8,0.6,1.3,0.6
			c0.5,0,0.9-0.2,1.2-0.5s0.5-0.7,0.5-1.2c0-0.5-0.2-0.9-0.5-1.2S46.8,27,46.3,27c-0.5,0-0.9-0.2-1.2-0.5c-0.3-0.3-0.5-0.7-0.5-1.2
			s0.2-0.9,0.5-1.2c0.3-0.3,0.7-0.5,1.2-0.5c0.6,0,1.1,0.3,1.4,0.8c0,0,0,0.1,0,0.1c0,0.1-0.1,0.2-0.2,0.2c0,0-0.1-0.1-0.2-0.2
			c-0.1-0.2-0.3-0.3-0.4-0.4c-0.2-0.1-0.4-0.2-0.7-0.2c-0.4,0-0.7,0.1-0.9,0.4S45,25,45,25.4c0,0.4,0.1,0.7,0.4,0.9
			c0.3,0.3,0.6,0.4,0.9,0.4c0.6,0,1,0.2,1.4,0.6C48.1,27.7,48.3,28.2,48.3,28.7z"/>
		<path class="st1" d="M55.9,27.2c0,1-0.3,1.8-1,2.5c-0.7,0.7-1.5,1-2.5,1c-1,0-1.8-0.3-2.5-1c-0.7-0.7-1-1.5-1-2.5s0.3-1.8,1-2.5
			c0.7-0.7,1.5-1,2.5-1c1,0,1.8,0.3,2.5,1C55.6,25.4,55.9,26.2,55.9,27.2z M55.6,27.2c0-0.9-0.3-1.6-0.9-2.3
			C54,24.3,53.2,24,52.4,24s-1.6,0.3-2.3,0.9c-0.6,0.6-0.9,1.4-0.9,2.3s0.3,1.6,0.9,2.3c0.6,0.6,1.4,0.9,2.3,0.9s1.6-0.3,2.3-0.9
			C55.2,28.8,55.6,28.1,55.6,27.2z"/>
		<path class="st1" d="M61.2,23.9c0,0.1-0.1,0.2-0.2,0.2H59v6.5c0,0.1-0.1,0.2-0.2,0.2s-0.2-0.1-0.2-0.2V24h-2.1
			c-0.1,0-0.2-0.1-0.2-0.2s0.1-0.2,0.2-0.2h4.5C61.2,23.7,61.2,23.7,61.2,23.9z"/>
		<path class="st1" d="M66.1,30.6c0,0.1-0.1,0.2-0.2,0.2h-3.7c-0.1,0-0.2-0.1-0.2-0.2v-6.7c0-0.1,0.1-0.2,0.2-0.2h3.7
			c0.1,0,0.2,0.1,0.2,0.2S66,24,65.9,24h-3.6v3h2.8c0.1,0,0.2,0.1,0.2,0.2c0,0.1-0.1,0.2-0.2,0.2h-2.8v3h3.6
			C66,30.4,66.1,30.5,66.1,30.6z"/>
	</g>
	<g class="st2">
		<path class="st1" d="M71.1,30.6c0,0.1-0.1,0.2-0.2,0.2h-3.7c-0.1,0-0.2-0.1-0.2-0.2v-6.7c0-0.1,0.1-0.2,0.2-0.2s0.2,0.1,0.2,0.2
			v6.5H71C71.1,30.4,71.1,30.5,71.1,30.6z"/>
	</g>
	<g class="st2">
		<path class="st1" d="M77.5,27.2c0,1-0.3,1.8-1,2.5c-0.7,0.7-1.5,1-2.5,1c-1,0-1.8-0.3-2.5-1s-1-1.5-1-2.5s0.3-1.8,1-2.5
			c0.7-0.7,1.5-1,2.5-1c1,0,1.8,0.3,2.5,1C77.1,25.4,77.5,26.2,77.5,27.2z M77.1,27.2c0-0.9-0.3-1.6-0.9-2.3
			C75.6,24.3,74.8,24,74,24s-1.6,0.3-2.3,0.9c-0.6,0.6-0.9,1.4-0.9,2.3s0.3,1.6,0.9,2.3c0.6,0.6,1.4,0.9,2.3,0.9s1.6-0.3,2.3-0.9
			C76.8,28.8,77.1,28.1,77.1,27.2z"/>
		<path class="st1" d="M85.6,30.6c0,0.1-0.1,0.2-0.2,0.2c0,0-0.1,0-0.1-0.1l-1.1-1.1c-0.2,0.4-0.4,0.6-0.8,0.9
			c-0.3,0.2-0.7,0.3-1.1,0.3c-0.6,0-1-0.2-1.4-0.6c-0.4-0.4-0.6-0.9-0.6-1.4c0-0.4,0.1-0.8,0.3-1.1c0.2-0.3,0.5-0.6,0.9-0.8
			c-0.3-0.3-0.5-0.5-0.6-0.7c-0.2-0.2-0.2-0.5-0.2-0.8c0-0.5,0.2-0.9,0.5-1.2c0.3-0.3,0.7-0.5,1.2-0.5c0.5,0,0.9,0.2,1.2,0.5
			c0.3,0.3,0.5,0.7,0.5,1.2s-0.2,0.9-0.5,1.2c-0.3,0.3-0.7,0.5-1.2,0.5c-0.1,0-0.1,0-0.2,0l3.4,3.4C85.6,30.5,85.6,30.5,85.6,30.6z
			 M83.9,29.3l-2.2-2.2c-0.3,0.1-0.6,0.3-0.8,0.6c-0.2,0.3-0.3,0.6-0.3,1c0,0.5,0.2,0.9,0.5,1.2s0.7,0.5,1.2,0.5
			c0.4,0,0.7-0.1,1-0.3S83.8,29.6,83.9,29.3z M83.6,25.4c0-0.4-0.1-0.7-0.4-0.9S82.7,24,82.3,24c-0.4,0-0.7,0.1-0.9,0.4
			C81.1,24.7,81,25,81,25.4c0,0.3,0.1,0.5,0.3,0.8c0.1,0.1,0.3,0.3,0.6,0.6c0.2,0,0.3-0.1,0.5-0.1c0.4,0,0.7-0.1,0.9-0.4
			S83.6,25.7,83.6,25.4z"/>
	</g>
	<g class="st2">
		<path class="st0" d="M92.2,28.7c0,0.6-0.2,1-0.6,1.4c-0.4,0.4-0.9,0.6-1.4,0.6c-0.4,0-0.7-0.1-1-0.3c-0.3-0.2-0.6-0.4-0.8-0.7
			c0,0,0-0.1,0-0.1c0-0.1,0.1-0.2,0.2-0.2c0.1,0,0.1,0,0.1,0.1c0,0.1,0.1,0.1,0.2,0.2c0.3,0.4,0.8,0.6,1.3,0.6
			c0.5,0,0.9-0.2,1.2-0.5s0.5-0.7,0.5-1.2c0-0.5-0.2-0.9-0.5-1.2S90.6,27,90.2,27c-0.5,0-0.9-0.2-1.2-0.5c-0.3-0.3-0.5-0.7-0.5-1.2
			s0.2-0.9,0.5-1.2c0.3-0.3,0.7-0.5,1.2-0.5c0.6,0,1.1,0.3,1.4,0.8c0,0,0,0.1,0,0.1c0,0.1-0.1,0.2-0.2,0.2c0,0-0.1-0.1-0.2-0.2
			c-0.1-0.2-0.3-0.3-0.4-0.4c-0.2-0.1-0.4-0.2-0.7-0.2c-0.4,0-0.7,0.1-0.9,0.4c-0.3,0.3-0.4,0.6-0.4,0.9c0,0.4,0.1,0.7,0.4,0.9
			c0.3,0.3,0.6,0.4,0.9,0.4c0.6,0,1,0.2,1.4,0.6C92,27.7,92.2,28.2,92.2,28.7z"/>
		<path class="st0" d="M99.8,27.2c0,1-0.3,1.8-1,2.5s-1.5,1-2.5,1s-1.8-0.3-2.5-1c-0.7-0.7-1-1.5-1-2.5s0.3-1.8,1-2.5
			c0.7-0.7,1.5-1,2.5-1s1.8,0.3,2.5,1C99.4,25.4,99.8,26.2,99.8,27.2z M99.4,27.2c0-0.9-0.3-1.6-0.9-2.3c-0.6-0.6-1.4-0.9-2.3-0.9
			S94.6,24.3,94,25c-0.6,0.6-0.9,1.4-0.9,2.3s0.3,1.6,0.9,2.3c0.6,0.6,1.4,0.9,2.3,0.9s1.6-0.3,2.3-0.9
			C99.1,28.8,99.4,28.1,99.4,27.2z"/>
		<path class="st0" d="M105.1,23.9c0,0.1-0.1,0.2-0.2,0.2h-2.1v6.5c0,0.1-0.1,0.2-0.2,0.2s-0.2-0.1-0.2-0.2V24h-2.1
			c-0.1,0-0.2-0.1-0.2-0.2s0.1-0.2,0.2-0.2h4.5C105,23.7,105.1,23.7,105.1,23.9z"/>
		<path class="st0" d="M109.9,30.6c0,0.1-0.1,0.2-0.2,0.2H106c-0.1,0-0.2-0.1-0.2-0.2v-6.7c0-0.1,0.1-0.2,0.2-0.2h3.7
			c0.1,0,0.2,0.1,0.2,0.2s-0.1,0.2-0.2,0.2h-3.6v3h2.8c0.1,0,0.2,0.1,0.2,0.2c0,0.1-0.1,0.2-0.2,0.2h-2.8v3h3.6
			C109.9,30.4,109.9,30.5,109.9,30.6z"/>
	</g>
	<g class="st2">
		<path class="st0" d="M115,30.6c0,0.1-0.1,0.2-0.2,0.2h-3.7c-0.1,0-0.2-0.1-0.2-0.2v-6.7c0-0.1,0.1-0.2,0.2-0.2s0.2,0.1,0.2,0.2
			v6.5h3.6C114.9,30.4,115,30.5,115,30.6z"/>
	</g>
	<g class="st2">
		<path class="st0" d="M121.4,27.2c0,1-0.3,1.8-1,2.5c-0.7,0.7-1.5,1-2.5,1c-1,0-1.8-0.3-2.5-1s-1-1.5-1-2.5s0.3-1.8,1-2.5
			c0.7-0.7,1.5-1,2.5-1c1,0,1.8,0.3,2.5,1C121,25.4,121.4,26.2,121.4,27.2z M121,27.2c0-0.9-0.3-1.6-0.9-2.3
			c-0.6-0.6-1.4-0.9-2.3-0.9s-1.6,0.3-2.3,0.9c-0.6,0.6-0.9,1.4-0.9,2.3s0.3,1.6,0.9,2.3c0.6,0.6,1.4,0.9,2.3,0.9s1.6-0.3,2.3-0.9
			C120.7,28.8,121,28.1,121,27.2z"/>
	</g>
	<g>
		<path class="st1" d="M47,35.6c0,0.2,0,0.4,0,0.6h-0.2l0-0.4h0c-0.1,0.2-0.4,0.4-0.8,0.4c-0.5,0-0.8-0.4-0.8-0.7c0-0.6,0.5-1,1.6-1
			v-0.1c0-0.3,0-0.8-0.7-0.8c-0.2,0-0.5,0.1-0.7,0.2l-0.1-0.2c0.2-0.2,0.5-0.2,0.8-0.2c0.8,0,0.9,0.6,0.9,1V35.6z M46.8,34.8
			c-0.6,0-1.3,0.1-1.3,0.7c0,0.4,0.3,0.5,0.5,0.5c0.4,0,0.7-0.3,0.8-0.5c0-0.1,0-0.1,0-0.2V34.8z"/>
		<path class="st1" d="M49.7,35.9c0.1,0.1,0.4,0.2,0.6,0.2c0.4,0,0.6-0.2,0.6-0.5c0-0.3-0.2-0.4-0.6-0.6c-0.4-0.2-0.7-0.4-0.7-0.7
			c0-0.4,0.3-0.7,0.8-0.7c0.2,0,0.5,0.1,0.6,0.2L51,33.9c-0.1-0.1-0.3-0.2-0.5-0.2c-0.3,0-0.5,0.2-0.5,0.5c0,0.3,0.2,0.4,0.5,0.5
			c0.4,0.2,0.7,0.4,0.7,0.8c0,0.5-0.4,0.8-0.9,0.8c-0.3,0-0.5-0.1-0.7-0.2L49.7,35.9z"/>
		<path class="st1" d="M53.8,34.9c0,0.8,0.5,1.2,1,1.2c0.4,0,0.6-0.1,0.7-0.1l0.1,0.2c-0.1,0.1-0.4,0.2-0.8,0.2
			c-0.8,0-1.2-0.5-1.2-1.3c0-0.9,0.5-1.4,1.2-1.4c0.9,0,1,0.8,1,1.2c0,0.1,0,0.1,0,0.2H53.8z M55.5,34.7c0-0.4-0.1-0.9-0.8-0.9
			c-0.6,0-0.8,0.5-0.9,0.9H55.5z"/>
		<path class="st1" d="M58.3,35.9c0.1,0.1,0.4,0.2,0.6,0.2c0.4,0,0.6-0.2,0.6-0.5c0-0.3-0.2-0.4-0.6-0.6c-0.4-0.2-0.7-0.4-0.7-0.7
			c0-0.4,0.3-0.7,0.8-0.7c0.2,0,0.5,0.1,0.6,0.2l-0.1,0.2c-0.1-0.1-0.3-0.2-0.5-0.2c-0.3,0-0.5,0.2-0.5,0.5c0,0.3,0.2,0.4,0.5,0.5
			c0.4,0.2,0.7,0.4,0.7,0.8c0,0.5-0.4,0.8-0.9,0.8c-0.3,0-0.5-0.1-0.7-0.2L58.3,35.9z"/>
		<path class="st1" d="M63.4,36.3c-0.7,0-1.2-0.5-1.2-1.4c0-0.9,0.6-1.4,1.2-1.4c0.7,0,1.2,0.5,1.2,1.4
			C64.6,35.9,63.9,36.3,63.4,36.3L63.4,36.3z M63.4,36.1c0.5,0,1-0.5,1-1.2c0-0.5-0.3-1.1-1-1.1c-0.7,0-1,0.6-1,1.2
			C62.4,35.6,62.8,36.1,63.4,36.1L63.4,36.1z"/>
		<path class="st1" d="M67.2,34.4c0-0.3,0-0.5,0-0.8h0.2l0,0.5h0c0.1-0.3,0.4-0.6,0.7-0.6c0,0,0.1,0,0.1,0v0.2c0,0-0.1,0-0.1,0
			c-0.4,0-0.6,0.3-0.7,0.7c0,0.1,0,0.2,0,0.3v1.5h-0.3V34.4z"/>
		<path class="st1" d="M70.7,34.9c0,0.8,0.5,1.2,1,1.2c0.4,0,0.6-0.1,0.7-0.1l0.1,0.2c-0.1,0.1-0.4,0.2-0.8,0.2
			c-0.8,0-1.2-0.5-1.2-1.3c0-0.9,0.5-1.4,1.2-1.4c0.9,0,1,0.8,1,1.2c0,0.1,0,0.1,0,0.2H70.7z M72.4,34.7c0-0.4-0.1-0.9-0.8-0.9
			c-0.6,0-0.8,0.5-0.9,0.9H72.4z"/>
		<path class="st1" d="M75.2,35.9c0.1,0.1,0.4,0.2,0.6,0.2c0.4,0,0.6-0.2,0.6-0.5c0-0.3-0.2-0.4-0.6-0.6c-0.4-0.2-0.7-0.4-0.7-0.7
			c0-0.4,0.3-0.7,0.8-0.7c0.2,0,0.5,0.1,0.6,0.2l-0.1,0.2c-0.1-0.1-0.3-0.2-0.5-0.2c-0.3,0-0.5,0.2-0.5,0.5c0,0.3,0.2,0.4,0.5,0.5
			c0.4,0.2,0.7,0.4,0.7,0.8c0,0.5-0.4,0.8-0.9,0.8c-0.3,0-0.5-0.1-0.7-0.2L75.2,35.9z"/>
		<path class="st1" d="M84.2,36.1c-0.1,0.1-0.4,0.2-0.8,0.2c-0.8,0-1.3-0.6-1.3-1.3c0-0.8,0.6-1.4,1.4-1.4c0.3,0,0.6,0.1,0.7,0.2
			l-0.1,0.2c-0.1-0.1-0.3-0.2-0.6-0.2c-0.7,0-1.1,0.5-1.1,1.2c0,0.7,0.4,1.1,1,1.1c0.3,0,0.5-0.1,0.7-0.2L84.2,36.1z"/>
		<path class="st1" d="M87.8,36.3c-0.7,0-1.2-0.5-1.2-1.4c0-0.9,0.6-1.4,1.2-1.4c0.7,0,1.2,0.5,1.2,1.4C89,35.9,88.4,36.3,87.8,36.3
			L87.8,36.3z M87.8,36.1c0.5,0,1-0.5,1-1.2c0-0.5-0.3-1.1-1-1.1c-0.7,0-1,0.6-1,1.2C86.8,35.6,87.3,36.1,87.8,36.1L87.8,36.1z"/>
		<path class="st1" d="M91.6,32.4h0.3v3.9h-0.3V32.4z"/>
		<path class="st1" d="M94.6,35.9c0.1,0.1,0.4,0.2,0.6,0.2c0.4,0,0.6-0.2,0.6-0.5c0-0.3-0.2-0.4-0.6-0.6c-0.4-0.2-0.7-0.4-0.7-0.7
			c0-0.4,0.3-0.7,0.8-0.7c0.2,0,0.5,0.1,0.6,0.2l-0.1,0.2c-0.1-0.1-0.3-0.2-0.5-0.2c-0.3,0-0.5,0.2-0.5,0.5c0,0.3,0.2,0.4,0.5,0.5
			c0.4,0.2,0.7,0.4,0.7,0.8c0,0.5-0.4,0.8-0.9,0.8c-0.3,0-0.5-0.1-0.7-0.2L94.6,35.9z"/>
		<path class="st1" d="M100.4,35.6c0,0.2,0,0.4,0,0.6h-0.2l0-0.4h0c-0.1,0.2-0.4,0.4-0.8,0.4c-0.5,0-0.8-0.4-0.8-0.7
			c0-0.6,0.5-1,1.6-1v-0.1c0-0.3,0-0.8-0.7-0.8c-0.2,0-0.5,0.1-0.7,0.2l-0.1-0.2c0.2-0.2,0.5-0.2,0.8-0.2c0.8,0,0.9,0.6,0.9,1V35.6z
			 M100.1,34.8c-0.6,0-1.3,0.1-1.3,0.7c0,0.4,0.3,0.5,0.5,0.5c0.4,0,0.7-0.3,0.8-0.5c0-0.1,0-0.1,0-0.2V34.8z"/>
		<path class="st1" d="M103.1,34.3c0-0.2,0-0.4,0-0.6h0.2l0,0.5h0c0.1-0.3,0.5-0.5,0.9-0.5c0.3,0,0.9,0.1,0.9,1.1v1.6H105v-1.6
			c0-0.5-0.2-0.9-0.7-0.9c-0.4,0-0.7,0.3-0.8,0.6c0,0.1,0,0.1,0,0.2v1.6h-0.3V34.3z"/>
		<path class="st1" d="M108.1,33.1c-0.1,0-0.2-0.1-0.2-0.2c0-0.1,0.1-0.2,0.2-0.2c0.1,0,0.2,0.1,0.2,0.2
			C108.3,33,108.3,33.1,108.1,33.1L108.1,33.1z M108,36.3v-2.6h0.3v2.6H108z"/>
		<path class="st1" d="M111.5,33v0.6h0.8v0.2h-0.8v1.7c0,0.3,0.1,0.5,0.4,0.5c0.1,0,0.2,0,0.3,0l0,0.2c-0.1,0-0.2,0.1-0.4,0.1
			c-0.2,0-0.4-0.1-0.5-0.2c-0.1-0.1-0.2-0.4-0.2-0.6v-1.7h-0.4v-0.2h0.4v-0.5L111.5,33z"/>
		<path class="st1" d="M116.4,35.6c0,0.2,0,0.4,0,0.6h-0.2l0-0.4h0c-0.1,0.2-0.4,0.4-0.8,0.4c-0.5,0-0.8-0.4-0.8-0.7
			c0-0.6,0.5-1,1.6-1v-0.1c0-0.3,0-0.8-0.7-0.8c-0.2,0-0.5,0.1-0.7,0.2l-0.1-0.2c0.2-0.2,0.5-0.2,0.8-0.2c0.8,0,0.9,0.6,0.9,1V35.6z
			 M116.1,34.8c-0.6,0-1.3,0.1-1.3,0.7c0,0.4,0.3,0.5,0.5,0.5c0.4,0,0.7-0.3,0.8-0.5c0-0.1,0-0.1,0-0.2V34.8z"/>
		<path class="st1" d="M119,35.9c0.1,0.1,0.4,0.2,0.6,0.2c0.4,0,0.6-0.2,0.6-0.5c0-0.3-0.2-0.4-0.6-0.6c-0.4-0.2-0.7-0.4-0.7-0.7
			c0-0.4,0.3-0.7,0.8-0.7c0.2,0,0.5,0.1,0.6,0.2l-0.1,0.2c-0.1-0.1-0.3-0.2-0.5-0.2c-0.3,0-0.5,0.2-0.5,0.5c0,0.3,0.2,0.4,0.5,0.5
			c0.4,0.2,0.7,0.4,0.7,0.8c0,0.5-0.4,0.8-0.9,0.8c-0.3,0-0.5-0.1-0.7-0.2L119,35.9z"/>
	</g>
</g>
</svg>
