<?xml version="1.0" encoding="utf-8"?>
<!-- Generator: Adobe Illustrator 23.0.0, SVG Export Plug-In . SVG Version: 6.00 Build 0)  -->
<svg version="1.1" id="Capa_1" xmlns="http://www.w3.org/2000/svg" xmlns:xlink="http://www.w3.org/1999/xlink" x="0px" y="0px"
	 viewBox="0 0 60 60" style="enable-background:new 0 0 60 60;" xml:space="preserve">
<style type="text/css">
	.st0{enable-background:new    ;}
	.st1{fill:#FFFFFF;stroke:#FFFFFF;stroke-width:0.2;stroke-miterlimit:10;}
	.st2{fill:#49BFED;stroke:#49BFED;stroke-width:0.2;stroke-miterlimit:10;}
	.st3{fill:#FFFFFF;stroke:#FFFFFF;stroke-width:0.1;stroke-miterlimit:10;}
	.st4{fill:#49BFED;}
	.st5{fill:#FFFFFF;}
</style>
<g>
	<g class="st0">
		<path class="st1" d="M5.6,46.6c0,0.4-0.1,0.7-0.4,1c-0.3,0.3-0.6,0.4-1,0.4c-0.3,0-0.5-0.1-0.7-0.2S3,47.5,2.9,47.3c0,0,0,0,0-0.1
			c0-0.1,0-0.1,0.1-0.1c0,0,0.1,0,0.1,0.1c0,0,0.1,0.1,0.1,0.2c0.2,0.3,0.5,0.4,0.9,0.4c0.3,0,0.6-0.1,0.8-0.4
			c0.2-0.2,0.4-0.5,0.4-0.8c0-0.3-0.1-0.6-0.4-0.8s-0.5-0.4-0.8-0.4c-0.3,0-0.6-0.1-0.8-0.3c-0.2-0.2-0.3-0.5-0.3-0.8
			s0.1-0.6,0.3-0.8c0.2-0.2,0.5-0.3,0.8-0.3c0.4,0,0.8,0.2,1,0.6c0,0,0,0,0,0.1c0,0.1,0,0.1-0.1,0.1c0,0-0.1,0-0.2-0.1
			c-0.1-0.1-0.2-0.2-0.3-0.3c-0.1-0.1-0.3-0.1-0.5-0.1c-0.3,0-0.5,0.1-0.7,0.3c-0.2,0.2-0.3,0.4-0.3,0.7c0,0.3,0.1,0.5,0.3,0.7
			c0.2,0.2,0.4,0.3,0.7,0.3c0.4,0,0.7,0.1,1,0.4C5.4,45.9,5.6,46.2,5.6,46.6z"/>
		<path class="st1" d="M10.9,45.6c0,0.7-0.2,1.3-0.7,1.8c-0.5,0.5-1.1,0.7-1.8,0.7c-0.7,0-1.3-0.2-1.8-0.7c-0.5-0.5-0.7-1.1-0.7-1.8
			s0.2-1.3,0.7-1.8c0.5-0.5,1.1-0.7,1.8-0.7c0.7,0,1.3,0.2,1.8,0.7C10.7,44.3,10.9,44.9,10.9,45.6z M10.7,45.6
			c0-0.6-0.2-1.2-0.7-1.6c-0.4-0.4-1-0.7-1.6-0.7c-0.6,0-1.2,0.2-1.6,0.7c-0.4,0.4-0.7,1-0.7,1.6s0.2,1.2,0.7,1.6
			c0.4,0.4,1,0.7,1.6,0.7c0.6,0,1.2-0.2,1.6-0.7C10.4,46.7,10.7,46.2,10.7,45.6z"/>
		<path class="st1" d="M14.7,43.2c0,0.1,0,0.1-0.1,0.1h-1.5v4.6c0,0.1,0,0.1-0.1,0.1c-0.1,0-0.1,0-0.1-0.1v-4.6h-1.5
			c-0.1,0-0.1,0-0.1-0.1c0-0.1,0-0.1,0.1-0.1h3.2C14.6,43.1,14.7,43.1,14.7,43.2z"/>
		<path class="st1" d="M18.1,47.9c0,0.1,0,0.1-0.1,0.1h-2.6c-0.1,0-0.1,0-0.1-0.1v-4.7c0-0.1,0-0.1,0.1-0.1H18c0.1,0,0.1,0,0.1,0.1
			c0,0.1,0,0.1-0.1,0.1h-2.5v2.1h2c0.1,0,0.1,0,0.1,0.1c0,0.1,0,0.1-0.1,0.1h-2v2.1H18C18,47.8,18.1,47.8,18.1,47.9z"/>
	</g>
	<g class="st0">
		<path class="st1" d="M21.7,47.9c0,0.1,0,0.1-0.1,0.1h-2.6c-0.1,0-0.1,0-0.1-0.1v-4.7c0-0.1,0-0.1,0.1-0.1s0.1,0,0.1,0.1v4.6h2.5
			C21.6,47.8,21.7,47.8,21.7,47.9z"/>
	</g>
	<g class="st0">
		<path class="st1" d="M26.2,45.6c0,0.7-0.2,1.3-0.7,1.8c-0.5,0.5-1.1,0.7-1.8,0.7c-0.7,0-1.3-0.2-1.8-0.7s-0.7-1.1-0.7-1.8
			s0.2-1.3,0.7-1.8c0.5-0.5,1.1-0.7,1.8-0.7c0.7,0,1.3,0.2,1.8,0.7C25.9,44.3,26.2,44.9,26.2,45.6z M25.9,45.6
			c0-0.6-0.2-1.2-0.7-1.6c-0.4-0.4-1-0.7-1.6-0.7s-1.2,0.2-1.6,0.7c-0.4,0.4-0.7,1-0.7,1.6s0.2,1.2,0.7,1.6c0.4,0.4,1,0.7,1.6,0.7
			s1.2-0.2,1.6-0.7C25.7,46.7,25.9,46.2,25.9,45.6z"/>
		<path class="st1" d="M31.9,47.9c0,0.1,0,0.1-0.1,0.1c0,0-0.1,0-0.1,0l-0.8-0.8c-0.1,0.3-0.3,0.5-0.5,0.6c-0.2,0.2-0.5,0.2-0.8,0.2
			c-0.4,0-0.7-0.1-1-0.4c-0.3-0.3-0.4-0.6-0.4-1c0-0.3,0.1-0.5,0.2-0.8c0.2-0.2,0.4-0.4,0.6-0.5c-0.2-0.2-0.3-0.4-0.4-0.5
			c-0.1-0.2-0.2-0.4-0.2-0.6c0-0.3,0.1-0.6,0.3-0.8c0.2-0.2,0.5-0.3,0.8-0.3c0.3,0,0.6,0.1,0.8,0.3c0.2,0.2,0.3,0.5,0.3,0.8
			c0,0.3-0.1,0.6-0.3,0.8c-0.2,0.2-0.5,0.3-0.8,0.3c0,0-0.1,0-0.1,0L31.9,47.9C31.9,47.9,31.9,47.9,31.9,47.9z M30.7,47l-1.5-1.5
			c-0.2,0.1-0.4,0.2-0.6,0.4c-0.1,0.2-0.2,0.4-0.2,0.7c0,0.3,0.1,0.6,0.4,0.8c0.2,0.2,0.5,0.4,0.8,0.4c0.2,0,0.5-0.1,0.7-0.2
			C30.4,47.4,30.6,47.3,30.7,47z M30.5,44.2c0-0.3-0.1-0.5-0.3-0.7c-0.2-0.2-0.4-0.3-0.7-0.3c-0.3,0-0.5,0.1-0.7,0.3
			c-0.2,0.2-0.3,0.4-0.3,0.7c0,0.2,0.1,0.4,0.2,0.5c0,0.1,0.2,0.2,0.4,0.4c0.1,0,0.2,0,0.3,0c0.3,0,0.5-0.1,0.7-0.3
			C30.4,44.7,30.5,44.5,30.5,44.2z"/>
	</g>
	<g class="st0">
		<path class="st2" d="M36.5,46.6c0,0.4-0.1,0.7-0.4,1c-0.3,0.3-0.6,0.4-1,0.4c-0.3,0-0.5-0.1-0.7-0.2c-0.2-0.1-0.4-0.3-0.5-0.5
			c0,0,0,0,0-0.1c0-0.1,0-0.1,0.1-0.1c0,0,0.1,0,0.1,0.1c0,0,0.1,0.1,0.1,0.2c0.2,0.3,0.5,0.4,0.9,0.4c0.3,0,0.6-0.1,0.8-0.4
			c0.2-0.2,0.4-0.5,0.4-0.8c0-0.3-0.1-0.6-0.4-0.8s-0.5-0.4-0.8-0.4c-0.3,0-0.6-0.1-0.8-0.3c-0.2-0.2-0.3-0.5-0.3-0.8
			s0.1-0.6,0.3-0.8c0.2-0.2,0.5-0.3,0.8-0.3c0.4,0,0.8,0.2,1,0.6c0,0,0,0,0,0.1c0,0.1,0,0.1-0.1,0.1c0,0-0.1,0-0.2-0.1
			c-0.1-0.1-0.2-0.2-0.3-0.3c-0.1-0.1-0.3-0.1-0.5-0.1c-0.3,0-0.5,0.1-0.7,0.3c-0.2,0.2-0.3,0.4-0.3,0.7c0,0.3,0.1,0.5,0.3,0.7
			c0.2,0.2,0.4,0.3,0.7,0.3c0.4,0,0.7,0.1,1,0.4C36.4,45.9,36.5,46.2,36.5,46.6z"/>
		<path class="st1" d="M41.9,45.6c0,0.7-0.2,1.3-0.7,1.8s-1.1,0.7-1.8,0.7s-1.3-0.2-1.8-0.7c-0.5-0.5-0.7-1.1-0.7-1.8
			s0.2-1.3,0.7-1.8c0.5-0.5,1.1-0.7,1.8-0.7s1.3,0.2,1.8,0.7C41.6,44.3,41.9,44.9,41.9,45.6z M41.6,45.6c0-0.6-0.2-1.2-0.7-1.6
			c-0.4-0.4-1-0.7-1.6-0.7s-1.2,0.2-1.6,0.7c-0.4,0.4-0.7,1-0.7,1.6s0.2,1.2,0.7,1.6c0.4,0.4,1,0.7,1.6,0.7s1.2-0.2,1.6-0.7
			C41.4,46.7,41.6,46.2,41.6,45.6z"/>
		<path class="st2" d="M45.7,43.2c0,0.1,0,0.1-0.1,0.1h-1.5v4.6c0,0.1,0,0.1-0.1,0.1s-0.1,0-0.1-0.1v-4.6h-1.5c-0.1,0-0.1,0-0.1-0.1
			c0-0.1,0-0.1,0.1-0.1h3.2C45.6,43.1,45.7,43.1,45.7,43.2z"/>
		<path class="st2" d="M49.1,47.9c0,0.1,0,0.1-0.1,0.1h-2.6c-0.1,0-0.1,0-0.1-0.1v-4.7c0-0.1,0-0.1,0.1-0.1h2.6c0.1,0,0.1,0,0.1,0.1
			c0,0.1,0,0.1-0.1,0.1h-2.5v2.1h2c0.1,0,0.1,0,0.1,0.1c0,0.1,0,0.1-0.1,0.1h-2v2.1h2.5C49,47.8,49.1,47.8,49.1,47.9z"/>
	</g>
	<g class="st0">
		<path class="st2" d="M52.6,47.9c0,0.1,0,0.1-0.1,0.1h-2.6c-0.1,0-0.1,0-0.1-0.1v-4.7c0-0.1,0-0.1,0.1-0.1c0.1,0,0.1,0,0.1,0.1v4.6
			h2.5C52.6,47.8,52.6,47.8,52.6,47.9z"/>
	</g>
	<g class="st0">
		<path class="st2" d="M57.1,45.6c0,0.7-0.2,1.3-0.7,1.8c-0.5,0.5-1.1,0.7-1.8,0.7c-0.7,0-1.3-0.2-1.8-0.7s-0.7-1.1-0.7-1.8
			s0.2-1.3,0.7-1.8c0.5-0.5,1.1-0.7,1.8-0.7c0.7,0,1.3,0.2,1.8,0.7C56.9,44.3,57.1,44.9,57.1,45.6z M56.9,45.6
			c0-0.6-0.2-1.2-0.7-1.6c-0.4-0.4-1-0.7-1.6-0.7s-1.2,0.2-1.6,0.7c-0.4,0.4-0.7,1-0.7,1.6s0.2,1.2,0.7,1.6c0.4,0.4,1,0.7,1.6,0.7
			s1.2-0.2,1.6-0.7C56.7,46.7,56.9,46.2,56.9,45.6z"/>
	</g>
	<g>
		<path class="st3" d="M4.7,51.5c0,0.1,0,0.3,0,0.4H4.5l0-0.3h0C4.4,51.8,4.2,52,3.9,52c-0.4,0-0.5-0.3-0.5-0.5
			c0-0.4,0.4-0.7,1.1-0.7v-0.1c0-0.2,0-0.6-0.5-0.5c-0.2,0-0.3,0-0.5,0.1l-0.1-0.1C3.6,50.1,3.8,50,4,50c0.5,0,0.6,0.4,0.6,0.7V51.5
			z M4.5,50.9c-0.4,0-0.9,0.1-0.9,0.5c0,0.3,0.2,0.4,0.4,0.4c0.3,0,0.5-0.2,0.6-0.4c0,0,0-0.1,0-0.1V50.9z"/>
		<path class="st3" d="M6.5,51.7c0.1,0.1,0.3,0.1,0.4,0.1c0.3,0,0.4-0.2,0.4-0.4c0-0.2-0.1-0.3-0.4-0.4c-0.3-0.1-0.5-0.3-0.5-0.5
			c0-0.3,0.2-0.5,0.6-0.5c0.2,0,0.3,0.1,0.4,0.1l-0.1,0.2c-0.1,0-0.2-0.1-0.4-0.1c-0.2,0-0.4,0.2-0.4,0.3c0,0.2,0.1,0.3,0.4,0.4
			c0.3,0.1,0.5,0.3,0.5,0.6c0,0.3-0.2,0.5-0.6,0.5c-0.2,0-0.3-0.1-0.5-0.1L6.5,51.7z"/>
		<path class="st3" d="M9.5,51c0,0.6,0.3,0.8,0.7,0.8c0.3,0,0.4-0.1,0.5-0.1l0,0.1c-0.1,0-0.3,0.1-0.6,0.1c-0.5,0-0.9-0.4-0.9-0.9
			c0-0.6,0.4-1,0.8-1c0.6,0,0.7,0.6,0.7,0.8c0,0.1,0,0.1,0,0.1H9.5z M10.6,50.8c0-0.3-0.1-0.7-0.6-0.7c-0.4,0-0.6,0.4-0.6,0.7H10.6z
			"/>
		<path class="st3" d="M12.6,51.7c0.1,0.1,0.3,0.1,0.4,0.1c0.3,0,0.4-0.2,0.4-0.4c0-0.2-0.1-0.3-0.4-0.4c-0.3-0.1-0.5-0.3-0.5-0.5
			c0-0.3,0.2-0.5,0.6-0.5c0.2,0,0.3,0.1,0.4,0.1l-0.1,0.2c-0.1,0-0.2-0.1-0.4-0.1c-0.2,0-0.4,0.2-0.4,0.3c0,0.2,0.1,0.3,0.4,0.4
			c0.3,0.1,0.5,0.3,0.5,0.6c0,0.3-0.2,0.5-0.6,0.5c-0.2,0-0.3-0.1-0.5-0.1L12.6,51.7z"/>
		<path class="st3" d="M16.2,52c-0.5,0-0.9-0.4-0.9-1c0-0.6,0.4-1,0.9-1c0.5,0,0.9,0.4,0.9,1C17.1,51.7,16.6,52,16.2,52L16.2,52z
			 M16.2,51.8c0.4,0,0.7-0.3,0.7-0.8c0-0.3-0.2-0.8-0.7-0.8c-0.5,0-0.7,0.4-0.7,0.8C15.5,51.5,15.8,51.8,16.2,51.8L16.2,51.8z"/>
		<path class="st3" d="M18.9,50.6c0-0.2,0-0.4,0-0.6h0.2l0,0.4h0c0.1-0.2,0.3-0.4,0.5-0.4c0,0,0.1,0,0.1,0v0.2c0,0-0.1,0-0.1,0
			c-0.3,0-0.4,0.2-0.5,0.5c0,0.1,0,0.1,0,0.2v1h-0.2V50.6z"/>
		<path class="st3" d="M21.4,51c0,0.6,0.3,0.8,0.7,0.8c0.3,0,0.4-0.1,0.5-0.1l0,0.1c-0.1,0-0.3,0.1-0.6,0.1c-0.5,0-0.9-0.4-0.9-0.9
			c0-0.6,0.4-1,0.8-1c0.6,0,0.7,0.6,0.7,0.8c0,0.1,0,0.1,0,0.1H21.4z M22.6,50.8c0-0.3-0.1-0.7-0.6-0.7c-0.4,0-0.6,0.4-0.6,0.7H22.6
			z"/>
		<path class="st3" d="M24.5,51.7c0.1,0.1,0.3,0.1,0.4,0.1c0.3,0,0.4-0.2,0.4-0.4c0-0.2-0.1-0.3-0.4-0.4c-0.3-0.1-0.5-0.3-0.5-0.5
			c0-0.3,0.2-0.5,0.6-0.5c0.2,0,0.3,0.1,0.4,0.1l-0.1,0.2c-0.1,0-0.2-0.1-0.4-0.1c-0.2,0-0.4,0.2-0.4,0.3c0,0.2,0.1,0.3,0.4,0.4
			c0.3,0.1,0.5,0.3,0.5,0.6c0,0.3-0.2,0.5-0.6,0.5c-0.2,0-0.3-0.1-0.5-0.1L24.5,51.7z"/>
		<path class="st3" d="M30.9,51.9c-0.1,0-0.3,0.1-0.5,0.1c-0.5,0-0.9-0.4-0.9-1c0-0.6,0.4-1,1-1c0.2,0,0.4,0.1,0.5,0.1l-0.1,0.2
			c-0.1-0.1-0.2-0.1-0.4-0.1c-0.5,0-0.8,0.4-0.8,0.8c0,0.5,0.3,0.8,0.7,0.8c0.2,0,0.4-0.1,0.5-0.1L30.9,51.9z"/>
		<path class="st3" d="M33.4,52c-0.5,0-0.9-0.4-0.9-1c0-0.6,0.4-1,0.9-1c0.5,0,0.9,0.4,0.9,1C34.3,51.7,33.8,52,33.4,52L33.4,52z
			 M33.4,51.8c0.4,0,0.7-0.3,0.7-0.8c0-0.3-0.2-0.8-0.7-0.8c-0.5,0-0.7,0.4-0.7,0.8C32.8,51.5,33.1,51.8,33.4,51.8L33.4,51.8z"/>
		<path class="st3" d="M36.2,49.2h0.2v2.8h-0.2V49.2z"/>
		<path class="st3" d="M38.3,51.7c0.1,0.1,0.3,0.1,0.4,0.1c0.3,0,0.4-0.2,0.4-0.4c0-0.2-0.1-0.3-0.4-0.4c-0.3-0.1-0.5-0.3-0.5-0.5
			c0-0.3,0.2-0.5,0.6-0.5c0.2,0,0.3,0.1,0.4,0.1l-0.1,0.2c-0.1,0-0.2-0.1-0.4-0.1c-0.2,0-0.4,0.2-0.4,0.3c0,0.2,0.1,0.3,0.4,0.4
			c0.3,0.1,0.5,0.3,0.5,0.6c0,0.3-0.2,0.5-0.6,0.5c-0.2,0-0.3-0.1-0.5-0.1L38.3,51.7z"/>
		<path class="st3" d="M42.3,51.5c0,0.1,0,0.3,0,0.4h-0.2l0-0.3h0C42,51.8,41.8,52,41.5,52c-0.4,0-0.5-0.3-0.5-0.5
			c0-0.4,0.4-0.7,1.1-0.7v-0.1c0-0.2,0-0.6-0.5-0.5c-0.2,0-0.3,0-0.5,0.1l-0.1-0.1c0.2-0.1,0.4-0.2,0.5-0.2c0.5,0,0.6,0.4,0.6,0.7
			V51.5z M42.1,50.9c-0.4,0-0.9,0.1-0.9,0.5c0,0.3,0.2,0.4,0.4,0.4c0.3,0,0.5-0.2,0.6-0.4c0,0,0-0.1,0-0.1V50.9z"/>
		<path class="st3" d="M44.3,50.5c0-0.2,0-0.3,0-0.4h0.2l0,0.3h0c0.1-0.2,0.3-0.4,0.6-0.4c0.2,0,0.7,0.1,0.7,0.8v1.1h-0.2v-1.1
			c0-0.3-0.1-0.6-0.5-0.6c-0.3,0-0.5,0.2-0.6,0.4c0,0,0,0.1,0,0.2v1.2h-0.2V50.5z"/>
		<path class="st3" d="M47.8,49.7c-0.1,0-0.1-0.1-0.1-0.2c0-0.1,0.1-0.2,0.2-0.2c0.1,0,0.1,0.1,0.1,0.2C48,49.6,47.9,49.7,47.8,49.7
			L47.8,49.7z M47.7,51.9v-1.9h0.2v1.9H47.7z"/>
		<path class="st3" d="M50.1,49.7v0.4h0.5v0.2h-0.5v1.2c0,0.2,0.1,0.4,0.3,0.4c0.1,0,0.2,0,0.2,0l0,0.1c-0.1,0-0.1,0-0.3,0
			c-0.1,0-0.2,0-0.3-0.1C50,51.7,50,51.6,50,51.4v-1.2h-0.3v-0.2H50v-0.3L50.1,49.7z"/>
		<path class="st3" d="M53.6,51.5c0,0.1,0,0.3,0,0.4h-0.2l0-0.3h0c-0.1,0.1-0.3,0.3-0.6,0.3c-0.4,0-0.5-0.3-0.5-0.5
			c0-0.4,0.4-0.7,1.1-0.7v-0.1c0-0.2,0-0.6-0.5-0.5c-0.2,0-0.3,0-0.5,0.1l-0.1-0.1c0.2-0.1,0.4-0.2,0.5-0.2c0.5,0,0.6,0.4,0.6,0.7
			V51.5z M53.4,50.9c-0.4,0-0.9,0.1-0.9,0.5c0,0.3,0.2,0.4,0.4,0.4c0.3,0,0.5-0.2,0.6-0.4c0,0,0-0.1,0-0.1V50.9z"/>
		<path class="st3" d="M55.5,51.7c0.1,0.1,0.3,0.1,0.4,0.1c0.3,0,0.4-0.2,0.4-0.4c0-0.2-0.1-0.3-0.4-0.4c-0.3-0.1-0.5-0.3-0.5-0.5
			c0-0.3,0.2-0.5,0.6-0.5c0.2,0,0.3,0.1,0.4,0.1l-0.1,0.2c-0.1,0-0.2-0.1-0.4-0.1c-0.2,0-0.4,0.2-0.4,0.3c0,0.2,0.1,0.3,0.4,0.4
			c0.3,0.1,0.5,0.3,0.5,0.6c0,0.3-0.2,0.5-0.6,0.5c-0.2,0-0.3-0.1-0.5-0.1L55.5,51.7z"/>
	</g>
</g>
<title>logo S&amp;amp;S</title>
<circle class="st4" cx="21.8" cy="17.6" r="4"/>
<circle class="st5" cx="21.9" cy="31.2" r="4.1"/>
<path class="st5" d="M23.4,23.5c-1.7-0.4-2.4,2.2-0.7,2.6c4.3,0.9,6,6.5,2.3,9.3c-2.4,1.7-5.6,1.1-7.3-1.3c-0.8-1.1-1.1-2.4-0.9-3.7
	c0.3-1.7-2.3-2.4-2.6-0.7c-0.6,3.1,0.7,6.2,3.3,8c3.6,2.4,8.5,1.5,10.9-2.1s1.5-8.5-2.1-10.9C25.4,24.1,24.4,23.7,23.4,23.5
	L23.4,23.5z"/>
<path class="st4" d="M26.3,11.6c-2.4-1.8-5.7-2-8.4-0.4c-5.8,3.4-4.3,12,2,13.8c0.7,0.2,1.5-0.2,1.6-0.9s-0.2-1.5-0.9-1.6l0,0
	c-4-1.2-5.1-6.7-1.3-8.9c2.4-1.3,5.3-0.5,6.7,1.8c0.6,1.1,0.8,2.3,0.5,3.5c-0.4,1.7,2.2,2.4,2.6,0.7C29.8,16.5,28.7,13.4,26.3,11.6z
	"/>
<circle class="st5" cx="38.2" cy="17.6" r="4"/>
<circle class="st4" cx="37.9" cy="31.4" r="4.1"/>
<path class="st4" d="M36.6,23.5c1.7-0.4,2.4,2.2,0.7,2.6c-4.3,0.9-6,6.5-2.3,9.3c2.4,1.7,5.6,1.1,7.3-1.3c0.8-1.1,1.1-2.4,0.9-3.7
	c-0.3-1.7,2.3-2.4,2.6-0.7c0.6,3.1-0.7,6.2-3.3,8c-3.6,2.4-8.5,1.5-10.9-2.1s-1.5-8.5,2.1-10.9C34.6,24.1,35.6,23.7,36.6,23.5
	L36.6,23.5z"/>
<path class="st5" d="M33.7,11.6c2.4-1.8,5.7-2,8.4-0.4c5.8,3.4,4.3,12-2,13.8c-0.7,0.2-1.5-0.2-1.7-0.9c-0.2-0.7,0.2-1.5,0.9-1.7
	l0,0c4-1.2,5.1-6.7,1.3-8.9c-2.3-1.3-5.3-0.5-6.7,1.8c-0.6,1.1-0.8,2.3-0.5,3.5c0.4,1.7-2.2,2.4-2.6,0.7
	C30.2,16.5,31.3,13.4,33.7,11.6z"/>
</svg>
